<svg width="21" height="20" viewBox="0 0 21 20" fill="none" xmlns="http://www.w3.org/2000/svg">
<path d="M10.0591 20C15.5819 20 20.0591 15.5229 20.0591 10C20.0591 4.47714 15.5819 0 10.0591 0C4.53622 0 0.059082 4.47714 0.059082 10C0.059082 15.5229 4.53622 20 10.0591 20Z" fill="#0098EA"/>
<path d="M13.4734 5.58133H6.64423C5.38859 5.58133 4.59277 6.93579 5.22445 8.03076L9.43916 15.336C9.7142 15.813 10.4034 15.813 10.6785 15.336L14.8941 8.03076C15.5249 6.93754 14.7291 5.58133 13.4743 5.58133H13.4734ZM9.43573 13.1453L8.51784 11.3688L6.30305 7.40765C6.15695 7.15412 6.33741 6.82922 6.64338 6.82922H9.43488V13.1462L9.43573 13.1453ZM13.8129 7.40679L11.5989 11.3697L10.6811 13.1453V6.82837H13.4726C13.7785 6.82837 13.959 7.15326 13.8129 7.40679Z" fill="white"/>
</svg>
