<svg width="12" height="13" viewBox="0 0 12 13" fill="none" xmlns="http://www.w3.org/2000/svg">
<path d="M2.30532 3.16702C3.03426 3.16702 3.62491 2.57637 3.62491 1.84743C3.62491 1.11901 3.03426 0.527837 2.30532 0.527837C1.5769 0.527837 0.985727 1.11901 0.985727 1.84743C0.985727 2.57637 1.5769 3.16702 2.30532 3.16702ZM9.69504 3.16702C10.424 3.16702 11.0146 2.57637 11.0146 1.84743C11.0146 1.11901 10.424 0.527837 9.69504 0.527837C8.96609 0.527837 8.37545 1.11849 8.37545 1.84743C8.37545 2.57637 8.96662 3.16702 9.69504 3.16702ZM5.95478 2.63919C6.68373 2.63919 7.27438 2.04854 7.27438 1.31959C7.27438 0.59065 6.68373 0 5.95478 0C5.22584 0 4.63519 0.59065 4.63519 1.31959C4.63519 2.04854 5.22637 2.63919 5.95478 2.63919ZM3.4085 8.56468C3.14141 8.2654 3.01473 7.86108 3.06065 7.45517L3.41061 4.38949C3.42328 4.27865 3.44809 4.17202 3.47712 4.06804C3.49612 3.99995 3.48662 3.92711 3.45125 3.86535C3.41642 3.80412 3.35783 3.75978 3.28974 3.74184C3.16781 3.71017 3.06224 3.69539 2.95667 3.69539H1.65344C0.989422 3.69539 0.42622 4.19208 0.344405 4.85135L0.00606151 7.55599C-0.0219139 7.78137 0.0477606 8.00782 0.198194 8.17831C0.337015 8.3356 0.531787 8.43061 0.739755 8.44434L0.986255 11.8959C0.996284 12.0342 1.11082 12.1408 1.24965 12.1408H3.36099C3.49929 12.1408 3.61436 12.0336 3.62438 11.8959L3.8276 9.05241C3.83499 8.95423 3.78696 8.8608 3.70356 8.8096C3.59008 8.73834 3.49084 8.656 3.4085 8.56468ZM8.32425 7.51482L7.97429 4.44861C7.89089 3.71808 7.31238 3.16702 6.62883 3.16702H5.28126C4.59772 3.16702 4.01868 3.71808 3.93581 4.44861L3.58585 7.51429C3.55629 7.77082 3.63547 8.02523 3.80279 8.21314C3.94689 8.37466 4.13797 8.46809 4.34488 8.4797L4.63625 12.4237C4.64628 12.5609 4.76135 12.6681 4.89964 12.6681H7.01099C7.14928 12.6681 7.26382 12.5615 7.27438 12.4237L7.56574 8.4797C7.77318 8.46809 7.96373 8.37414 8.10783 8.21314C8.27463 8.02629 8.35328 7.77082 8.32425 7.51482ZM11.9938 7.55599L11.6554 4.85082C11.5731 4.19208 11.0104 3.69486 10.3464 3.69486H9.04316C8.89642 3.69486 8.74863 3.72072 8.60347 3.77245C8.47362 3.81837 8.40131 3.95614 8.43667 4.08915C8.46254 4.1868 8.48682 4.28604 8.49896 4.38896L8.84892 7.45464C8.89484 7.86055 8.76816 8.26487 8.50107 8.56416C8.44301 8.62961 8.37175 8.69084 8.27832 8.75787C8.20337 8.81118 8.16167 8.89986 8.16853 8.99118L8.37597 11.8948C8.386 12.0331 8.50054 12.1403 8.63936 12.1403H10.7507C10.889 12.1403 11.0041 12.0331 11.0141 11.8953L11.2606 8.44381C11.4686 8.43009 11.6633 8.33507 11.8022 8.17778C11.9521 8.00729 12.0223 7.78137 11.9938 7.55599Z" fill="#878787"/>
</svg>
