<svg width="430" height="528" viewBox="0 0 430 528" fill="none" xmlns="http://www.w3.org/2000/svg">
<g filter="url(#filter0_i_97_894)">
<path fill-rule="evenodd" clip-rule="evenodd" d="M19.6754 247.173C21.7645 222.803 28.4786 198.427 40.2234 175.293L210.666 262.771L19.6754 247.173Z" fill="url(#paint0_linear_97_894)"/>
</g>
<path fill-rule="evenodd" clip-rule="evenodd" d="M28.1455 323.187C20.6104 299.402 17.5877 274.183 19.5236 248.923L210.523 264.522L28.1455 323.187Z" fill="white"/>
<g filter="url(#filter1_i_97_894)">
<path fill-rule="evenodd" clip-rule="evenodd" d="M64.9772 390.229C48.6752 370.838 36.432 348.584 28.6858 324.866L211.063 266.201L64.9772 390.229Z" fill="url(#paint1_linear_97_894)"/>
</g>
<path fill-rule="evenodd" clip-rule="evenodd" d="M124.312 437.773C101.281 425.823 81.6172 409.931 65.7102 391.352L211.789 267.331L124.312 437.773Z" fill="white"/>
<g filter="url(#filter2_i_97_894)">
<path fill-rule="evenodd" clip-rule="evenodd" d="M198.174 459.337C173.803 457.248 149.427 450.534 126.293 438.789L213.771 268.346L198.174 459.337Z" fill="url(#paint2_linear_97_894)"/>
</g>
<path fill-rule="evenodd" clip-rule="evenodd" d="M274.187 450.867C250.402 458.402 225.183 461.425 199.924 459.489L215.522 268.49L274.187 450.867Z" fill="white"/>
<g filter="url(#filter3_i_97_894)">
<path fill-rule="evenodd" clip-rule="evenodd" d="M341.229 414.035C321.838 430.337 299.585 442.581 275.867 450.327L217.202 267.949L341.229 414.035Z" fill="url(#paint3_linear_97_894)"/>
</g>
<path fill-rule="evenodd" clip-rule="evenodd" d="M388.984 354.289C377.035 377.32 361.143 396.984 342.564 412.891L218.541 266.811L388.984 354.289Z" fill="white"/>
<g filter="url(#filter4_i_97_894)">
<path fill-rule="evenodd" clip-rule="evenodd" d="M410.338 280.839C408.249 305.21 401.534 329.585 389.79 352.72L219.347 265.242L410.338 280.839Z" fill="url(#paint4_linear_97_894)"/>
</g>
<path fill-rule="evenodd" clip-rule="evenodd" d="M401.867 204.826C409.402 228.61 412.425 253.83 410.489 279.089L219.49 263.491L401.867 204.826Z" fill="white"/>
<g filter="url(#filter5_i_97_894)">
<path fill-rule="evenodd" clip-rule="evenodd" d="M365.036 137.783C381.338 157.175 393.581 179.428 401.327 203.146L218.95 261.811L365.036 137.783Z" fill="url(#paint5_linear_97_894)"/>
</g>
<path fill-rule="evenodd" clip-rule="evenodd" d="M305.29 90.0291C328.322 101.978 347.985 117.87 363.892 136.45L217.813 260.471L305.29 90.0291Z" fill="white"/>
<g filter="url(#filter6_i_97_894)">
<path fill-rule="evenodd" clip-rule="evenodd" d="M231.839 68.6751C256.21 70.7642 280.586 77.4784 303.72 89.2231L216.242 259.666L231.839 68.6751Z" fill="url(#paint6_linear_97_894)"/>
</g>
<path fill-rule="evenodd" clip-rule="evenodd" d="M155.826 77.1453C179.611 69.6102 204.83 66.5875 230.089 68.5234L214.491 259.523L155.826 77.1453Z" fill="white"/>
<g filter="url(#filter7_i_97_894)">
<path fill-rule="evenodd" clip-rule="evenodd" d="M88.7834 113.977C108.175 97.6749 130.428 85.4317 154.146 77.6855L212.811 260.063L88.7834 113.977Z" fill="url(#paint7_linear_97_894)"/>
</g>
<path fill-rule="evenodd" clip-rule="evenodd" d="M41.0294 173.722C52.9786 150.691 68.8705 131.028 87.4499 115.121L211.472 261.2L41.0294 173.722Z" fill="white"/>
<path d="M105.892 390.738L112.513 382.754L114.427 395.541L127.212 394.945L120.592 402.928L113.459 403.295L114.418 410.373L107.798 418.356L106.04 405.655L93.0977 406.166L99.7184 398.182L106.878 397.838L105.892 390.738ZM141.224 364.599C143.709 366.69 144.595 369.336 143.881 372.538C143.168 375.74 141.313 379.148 138.316 382.763C134.886 386.898 131.61 389.477 128.487 390.498C125.379 391.502 122.377 390.803 119.482 388.402L125.499 381.147C126.74 382.176 128.064 382.409 129.471 381.846C130.893 381.266 132.214 380.222 133.434 378.714C134.499 377.503 135.217 376.308 135.588 375.129C135.941 373.935 135.702 372.978 134.872 372.259C134.156 371.696 133.474 371.585 132.825 371.928C132.192 372.252 131.458 372.918 130.623 373.925L126.485 378.915L122.331 375.47L126.469 370.48C127.573 369.15 128.094 368.155 128.032 367.498C127.971 366.84 127.751 366.354 127.374 366.041C126.834 365.594 126.073 365.706 125.091 366.379C124.109 367.051 123.096 368.016 122.052 369.275C120.832 370.782 119.934 372.177 119.356 373.458C118.794 374.722 118.81 375.6 119.403 376.092L113.386 383.347C110.797 381.2 110.125 378.443 111.37 375.075C112.612 371.674 114.545 368.391 117.17 365.227C118.765 363.303 120.375 361.618 121.998 360.172C123.619 358.694 125.392 357.691 127.317 357.163C129.242 356.635 131.067 357.086 132.793 358.518C134.466 359.905 134.587 362.1 133.159 365.103C134.464 364.152 135.781 363.606 137.112 363.465C138.44 363.291 139.792 363.654 141.17 364.554L141.224 364.599Z" fill="black"/>
<path d="M339.453 375.152L331.532 368.456L344.336 366.661L343.86 353.871L351.781 360.567L352.081 367.703L359.167 366.81L367.088 373.506L354.371 375.144L354.76 388.09L346.839 381.395L346.562 374.232L339.453 375.152ZM314.157 337.941L318.681 332.588L343.783 353.806L341.295 356.75C339.379 359.015 337.32 360.257 335.118 360.475C332.9 360.711 330.948 360.468 329.263 359.748C327.561 359.012 325.652 357.995 323.537 356.697C323.117 356.434 322.382 355.965 321.331 355.291C320.191 354.541 319.306 353.977 318.678 353.599C318.016 353.223 317.4 352.993 316.83 352.908C316.244 352.841 315.778 353.013 315.431 353.423C314.903 354.048 314.973 354.887 315.642 355.942C316.293 356.981 317.26 358.044 318.545 359.13C319.788 360.119 320.996 360.789 322.169 361.138C323.324 361.472 324.219 361.265 324.852 360.515L332.586 367.053C330.203 369.871 327.365 370.714 324.071 369.582C320.761 368.467 317.555 366.597 314.451 363.973C312.452 362.284 310.682 360.543 309.139 358.75C307.581 356.974 306.538 355.006 306.009 352.846C305.446 350.689 305.987 348.637 307.631 346.693C308.913 345.176 310.386 344.357 312.049 344.234C313.68 344.114 315.148 344.314 316.451 344.834C317.739 345.373 319.209 346.095 320.86 347.001C321.467 347.331 322.6 348.09 324.258 349.277C326.636 350.951 328.522 352.193 329.916 353.005C331.31 353.816 332.203 353.99 332.595 353.526L314.157 337.941Z" fill="black"/>
<path d="M47.6676 274.523L57.9932 273.545L50.3199 283.951L59.793 292.557L49.4674 293.535L44.158 288.758L39.8394 294.446L29.5137 295.424L37.2384 285.189L27.7139 276.412L38.0396 275.434L43.3522 280.246L47.6676 274.523ZM72.5897 265.3L75.0335 291.114L65.7892 291.99L64.2536 275.769L58.428 276.32L57.9359 271.122C63.1685 270.627 65.6461 268.914 65.3687 265.984L72.5897 265.3Z" fill="black"/>
<path d="M325.304 138.547L318.341 146.234L316.986 133.377L304.187 133.414L311.15 125.727L318.292 125.671L317.642 118.559L324.605 110.872L325.807 123.638L338.759 123.692L331.796 131.379L324.628 131.411L325.304 138.547ZM313.128 162.167L293.91 144.761L300.144 137.878L312.22 148.816L316.148 144.479L320.018 147.984C316.49 151.88 315.816 154.816 317.998 156.792L313.128 162.167ZM301.041 176.243C297.985 179.652 295.121 181.77 292.45 182.597C289.796 183.439 287.507 183.478 285.584 182.713C283.678 181.964 281.92 180.86 280.31 179.402C277.73 177.065 276.139 174.159 275.537 170.683C274.92 167.224 276.798 163.079 281.174 158.248C284.247 154.855 287.202 152.724 290.036 151.856C292.855 151.006 295.3 150.951 297.371 151.692C299.442 152.433 301.172 153.48 302.562 154.834C304.051 156.182 305.24 157.81 306.128 159.718C307.018 161.659 307.161 164.041 306.556 166.866C305.953 169.724 304.115 172.85 301.041 176.243ZM286.604 163.214C284.863 165.136 284.042 166.929 284.141 168.595C284.242 170.293 284.948 171.706 286.261 172.831C287.442 173.964 288.856 174.473 290.504 174.358C292.137 174.261 293.823 173.251 295.564 171.329C297.289 169.425 298.119 167.656 298.055 166.021C297.991 164.387 297.337 163.039 296.094 161.976C294.844 160.781 293.377 160.208 291.692 160.258C290.025 160.324 288.329 161.309 286.604 163.214Z" fill="black"/>
<path d="M231.314 447.458L246.073 451.685L244.394 447.881C249.633 445.078 253.654 440.544 255.823 434.946C255.896 434.758 256.613 432.774 256.613 432.774L246.117 427.569L245.471 429.751C245.367 430.102 245.247 430.454 245.114 430.797C244.056 433.528 242.175 435.788 239.726 437.312L238.133 433.703L231.314 447.458ZM248.362 432.955L251.794 434.657C249.658 439.383 245.907 443.107 241.125 445.218L239.658 445.866L236.784 445.043L238.117 442.354L239.576 441.71C243.532 439.962 246.625 436.872 248.362 432.955ZM236.633 413.602C236.983 413.706 237.335 413.826 237.679 413.959C240.409 415.017 242.669 416.897 244.193 419.347L240.584 420.94L254.34 427.759L258.567 413L254.762 414.68C251.959 409.44 247.426 405.419 241.827 403.25C241.641 403.178 239.656 402.46 239.656 402.46L234.45 412.956L236.633 413.602ZM241.539 407.279C246.264 409.415 249.988 413.167 252.099 417.948L252.747 419.415L251.924 422.289L249.235 420.956L248.591 419.497C246.844 415.541 243.754 412.448 239.836 410.711L241.539 407.279ZM224.127 448.942C224.314 449.014 226.299 449.732 226.299 449.732L231.504 439.236L229.322 438.589C228.97 438.486 228.619 438.365 228.276 438.233C225.546 437.175 223.285 435.294 221.762 432.845L225.371 431.251L211.615 424.432L207.388 439.192L211.192 437.512C213.995 442.751 218.529 446.773 224.127 448.942ZM213.207 432.777L214.03 429.902L216.719 431.235L217.364 432.694C219.111 436.651 222.201 439.744 226.118 441.481L224.416 444.913C219.69 442.776 215.966 439.025 213.855 434.244L213.207 432.777ZM220.84 421.394C221.898 418.664 223.779 416.404 226.228 414.88L227.822 418.489L234.641 404.733L219.881 400.506L221.561 404.311C216.322 407.114 212.3 411.647 210.131 417.246C210.059 417.434 209.342 419.418 209.342 419.418L219.837 424.623L220.483 422.44C220.587 422.089 220.708 421.737 220.84 421.394ZM214.16 417.534C216.297 412.809 220.048 409.085 224.829 406.974L226.296 406.326L229.171 407.149L227.838 409.838L226.379 410.482C222.422 412.229 219.329 415.319 217.592 419.237L214.16 417.534Z" fill="black"/>
<path d="M203.932 100.71C204.076 102.005 203.602 103.019 202.509 103.752C201.417 104.485 199.935 104.963 198.065 105.185C195.925 105.438 194.26 105.282 193.07 104.715C191.889 104.148 191.21 103.115 191.032 101.616L194.787 101.171C194.863 101.814 195.183 102.247 195.748 102.473C196.322 102.697 196.994 102.759 197.765 102.658C198.41 102.601 198.949 102.452 199.383 102.212C199.815 101.962 200.011 101.619 199.968 101.18C199.916 100.818 199.748 100.598 199.465 100.518C199.191 100.437 198.794 100.428 198.273 100.489L195.69 100.795L195.436 98.6459L198.018 98.3399C198.706 98.2583 199.133 98.1134 199.297 97.9052C199.461 97.6971 199.531 97.4953 199.508 97.2999C199.475 97.0207 199.223 96.843 198.751 96.7668C198.28 96.6906 197.719 96.6911 197.067 96.7683C196.296 96.8691 195.649 97.026 195.127 97.2388C194.615 97.4506 194.376 97.71 194.413 98.017L190.658 98.4621C190.499 97.1221 191.066 96.1349 192.359 95.5004C193.661 94.8555 195.13 94.436 196.768 94.2419C197.763 94.1239 198.697 94.0793 199.569 94.1081C200.448 94.1265 201.241 94.3251 201.946 94.7038C202.652 95.0826 203.057 95.7186 203.163 96.6119C203.266 97.4773 202.694 98.1489 201.449 98.6268C202.091 98.7111 202.625 98.9167 203.05 99.2437C203.484 99.5602 203.777 100.04 203.929 100.682L203.932 100.71Z" fill="black"/>
<path d="M231.064 431.645L229.904 421.309L233.606 420.894L234.335 427.389L236.667 427.127L236.901 429.208C234.806 429.443 233.824 430.147 233.956 431.321L231.064 431.645Z" fill="black"/>
<path d="M201.463 79.5244L187.41 73.3413L188.56 77.3377C182.99 79.4069 178.393 83.355 175.487 88.6093C175.39 88.7853 174.411 90.6544 174.411 90.6544L184.106 97.2304L185.042 95.1552C185.192 94.8215 185.359 94.4891 185.537 94.1671C186.954 91.6048 189.123 89.6194 191.756 88.4408L192.847 92.2319L201.463 79.5244ZM182.61 91.5901L179.44 89.4395C182.195 85.0464 186.415 81.8635 191.438 80.4178L192.98 79.9741L195.716 81.1783L194.032 83.6624L192.499 84.1035C188.343 85.2999 184.861 87.9435 182.61 91.5901ZM191.616 112.351C191.283 112.201 190.951 112.034 190.628 111.856C188.066 110.439 186.08 108.27 184.902 105.637L188.693 104.546L175.985 95.93L169.802 109.983L173.799 108.833C175.868 114.403 179.816 119 185.07 121.906C185.245 122.002 187.115 122.982 187.115 122.982L193.692 113.286L191.616 112.351ZM185.9 117.953C181.507 115.197 178.324 110.977 176.879 105.954L176.435 104.413L177.639 101.676L180.123 103.361L180.565 104.893C181.761 109.05 184.404 112.532 188.051 114.782L185.9 117.953ZM208.783 79.026C208.609 78.9294 206.739 77.9495 206.739 77.9495L200.162 87.6456L202.238 88.581C202.572 88.7315 202.904 88.8981 203.226 89.076C205.788 90.4929 207.773 92.6621 208.952 95.2948L205.161 96.3858L217.868 105.002L224.051 90.949L220.055 92.0992C217.986 86.5291 214.038 81.9317 208.783 79.026ZM217.419 96.5187L216.214 99.2554L213.73 97.5712L213.289 96.0383C212.093 91.8823 209.449 88.3999 205.803 86.1495L207.953 82.9787C212.346 85.7345 215.529 89.9547 216.975 94.9775L217.419 96.5187ZM208.317 106.765C206.9 109.327 204.731 111.312 202.098 112.491L201.007 108.7L192.391 121.407L206.444 127.591L205.294 123.594C210.864 121.525 215.461 117.577 218.367 112.323C218.464 112.147 219.443 110.277 219.443 110.277L209.747 103.701L208.812 105.777C208.661 106.11 208.495 106.443 208.317 106.765ZM214.414 111.492C211.658 115.885 207.438 119.068 202.415 120.514L200.874 120.958L198.137 119.754L199.821 117.27L201.354 116.828C205.51 115.632 208.993 112.988 211.243 109.342L214.414 111.492Z" fill="black"/>
<defs>
<filter id="filter0_i_97_894" x="19.6754" y="175.293" width="190.991" height="87.478" filterUnits="userSpaceOnUse" color-interpolation-filters="sRGB">
<feFlood flood-opacity="0" result="BackgroundImageFix"/>
<feBlend mode="normal" in="SourceGraphic" in2="BackgroundImageFix" result="shape"/>
<feColorMatrix in="SourceAlpha" type="matrix" values="0 0 0 0 0 0 0 0 0 0 0 0 0 0 0 0 0 0 127 0" result="hardAlpha"/>
<feOffset/>
<feGaussianBlur stdDeviation="12.5"/>
<feComposite in2="hardAlpha" operator="arithmetic" k2="-1" k3="1"/>
<feColorMatrix type="matrix" values="0 0 0 0 0 0 0 0 0 0 0 0 0 0 0 0 0 0 1 0"/>
<feBlend mode="normal" in2="shape" result="effect1_innerShadow_97_894"/>
</filter>
<filter id="filter1_i_97_894" x="28.6858" y="266.201" width="182.377" height="124.028" filterUnits="userSpaceOnUse" color-interpolation-filters="sRGB">
<feFlood flood-opacity="0" result="BackgroundImageFix"/>
<feBlend mode="normal" in="SourceGraphic" in2="BackgroundImageFix" result="shape"/>
<feColorMatrix in="SourceAlpha" type="matrix" values="0 0 0 0 0 0 0 0 0 0 0 0 0 0 0 0 0 0 127 0" result="hardAlpha"/>
<feOffset/>
<feGaussianBlur stdDeviation="12.5"/>
<feComposite in2="hardAlpha" operator="arithmetic" k2="-1" k3="1"/>
<feColorMatrix type="matrix" values="0 0 0 0 0 0 0 0 0 0 0 0 0 0 0 0 0 0 1 0"/>
<feBlend mode="normal" in2="shape" result="effect1_innerShadow_97_894"/>
</filter>
<filter id="filter2_i_97_894" x="126.293" y="268.346" width="87.478" height="190.991" filterUnits="userSpaceOnUse" color-interpolation-filters="sRGB">
<feFlood flood-opacity="0" result="BackgroundImageFix"/>
<feBlend mode="normal" in="SourceGraphic" in2="BackgroundImageFix" result="shape"/>
<feColorMatrix in="SourceAlpha" type="matrix" values="0 0 0 0 0 0 0 0 0 0 0 0 0 0 0 0 0 0 127 0" result="hardAlpha"/>
<feOffset/>
<feGaussianBlur stdDeviation="12.5"/>
<feComposite in2="hardAlpha" operator="arithmetic" k2="-1" k3="1"/>
<feColorMatrix type="matrix" values="0 0 0 0 0 0 0 0 0 0 0 0 0 0 0 0 0 0 1 0"/>
<feBlend mode="normal" in2="shape" result="effect1_innerShadow_97_894"/>
</filter>
<filter id="filter3_i_97_894" x="217.202" y="267.949" width="124.028" height="182.377" filterUnits="userSpaceOnUse" color-interpolation-filters="sRGB">
<feFlood flood-opacity="0" result="BackgroundImageFix"/>
<feBlend mode="normal" in="SourceGraphic" in2="BackgroundImageFix" result="shape"/>
<feColorMatrix in="SourceAlpha" type="matrix" values="0 0 0 0 0 0 0 0 0 0 0 0 0 0 0 0 0 0 127 0" result="hardAlpha"/>
<feOffset/>
<feGaussianBlur stdDeviation="12.5"/>
<feComposite in2="hardAlpha" operator="arithmetic" k2="-1" k3="1"/>
<feColorMatrix type="matrix" values="0 0 0 0 0 0 0 0 0 0 0 0 0 0 0 0 0 0 1 0"/>
<feBlend mode="normal" in2="shape" result="effect1_innerShadow_97_894"/>
</filter>
<filter id="filter4_i_97_894" x="219.347" y="265.242" width="190.991" height="87.478" filterUnits="userSpaceOnUse" color-interpolation-filters="sRGB">
<feFlood flood-opacity="0" result="BackgroundImageFix"/>
<feBlend mode="normal" in="SourceGraphic" in2="BackgroundImageFix" result="shape"/>
<feColorMatrix in="SourceAlpha" type="matrix" values="0 0 0 0 0 0 0 0 0 0 0 0 0 0 0 0 0 0 127 0" result="hardAlpha"/>
<feOffset/>
<feGaussianBlur stdDeviation="12.5"/>
<feComposite in2="hardAlpha" operator="arithmetic" k2="-1" k3="1"/>
<feColorMatrix type="matrix" values="0 0 0 0 0 0 0 0 0 0 0 0 0 0 0 0 0 0 1 0"/>
<feBlend mode="normal" in2="shape" result="effect1_innerShadow_97_894"/>
</filter>
<filter id="filter5_i_97_894" x="218.95" y="137.783" width="182.377" height="124.028" filterUnits="userSpaceOnUse" color-interpolation-filters="sRGB">
<feFlood flood-opacity="0" result="BackgroundImageFix"/>
<feBlend mode="normal" in="SourceGraphic" in2="BackgroundImageFix" result="shape"/>
<feColorMatrix in="SourceAlpha" type="matrix" values="0 0 0 0 0 0 0 0 0 0 0 0 0 0 0 0 0 0 127 0" result="hardAlpha"/>
<feOffset/>
<feGaussianBlur stdDeviation="12.5"/>
<feComposite in2="hardAlpha" operator="arithmetic" k2="-1" k3="1"/>
<feColorMatrix type="matrix" values="0 0 0 0 0 0 0 0 0 0 0 0 0 0 0 0 0 0 1 0"/>
<feBlend mode="normal" in2="shape" result="effect1_innerShadow_97_894"/>
</filter>
<filter id="filter6_i_97_894" x="216.242" y="68.6751" width="87.478" height="190.991" filterUnits="userSpaceOnUse" color-interpolation-filters="sRGB">
<feFlood flood-opacity="0" result="BackgroundImageFix"/>
<feBlend mode="normal" in="SourceGraphic" in2="BackgroundImageFix" result="shape"/>
<feColorMatrix in="SourceAlpha" type="matrix" values="0 0 0 0 0 0 0 0 0 0 0 0 0 0 0 0 0 0 127 0" result="hardAlpha"/>
<feOffset/>
<feGaussianBlur stdDeviation="12.5"/>
<feComposite in2="hardAlpha" operator="arithmetic" k2="-1" k3="1"/>
<feColorMatrix type="matrix" values="0 0 0 0 0 0 0 0 0 0 0 0 0 0 0 0 0 0 1 0"/>
<feBlend mode="normal" in2="shape" result="effect1_innerShadow_97_894"/>
</filter>
<filter id="filter7_i_97_894" x="88.7834" y="77.6855" width="124.028" height="182.377" filterUnits="userSpaceOnUse" color-interpolation-filters="sRGB">
<feFlood flood-opacity="0" result="BackgroundImageFix"/>
<feBlend mode="normal" in="SourceGraphic" in2="BackgroundImageFix" result="shape"/>
<feColorMatrix in="SourceAlpha" type="matrix" values="0 0 0 0 0 0 0 0 0 0 0 0 0 0 0 0 0 0 127 0" result="hardAlpha"/>
<feOffset/>
<feGaussianBlur stdDeviation="12.5"/>
<feComposite in2="hardAlpha" operator="arithmetic" k2="-1" k3="1"/>
<feColorMatrix type="matrix" values="0 0 0 0 0 0 0 0 0 0 0 0 0 0 0 0 0 0 1 0"/>
<feBlend mode="normal" in2="shape" result="effect1_innerShadow_97_894"/>
</filter>
<linearGradient id="paint0_linear_97_894" x1="177.321" y1="253.102" x2="27.6449" y2="209.965" gradientUnits="userSpaceOnUse">
<stop/>
<stop offset="1" stop-color="#666666"/>
</linearGradient>
<linearGradient id="paint1_linear_97_894" x1="178.783" y1="284.2" x2="42.7071" y2="358.797" gradientUnits="userSpaceOnUse">
<stop/>
<stop offset="1" stop-color="#666666"/>
</linearGradient>
<linearGradient id="paint2_linear_97_894" x1="202.276" y1="304.126" x2="161.364" y2="451.731" gradientUnits="userSpaceOnUse">
<stop/>
<stop offset="1" stop-color="#666666"/>
</linearGradient>
<linearGradient id="paint3_linear_97_894" x1="235.863" y1="300.008" x2="309.798" y2="435.182" gradientUnits="userSpaceOnUse">
<stop/>
<stop offset="1" stop-color="#666666"/>
</linearGradient>
<linearGradient id="paint4_linear_97_894" x1="254.466" y1="274.711" x2="402.72" y2="317.643" gradientUnits="userSpaceOnUse">
<stop/>
<stop offset="1" stop-color="#666666"/>
</linearGradient>
<linearGradient id="paint5_linear_97_894" x1="250.529" y1="245.152" x2="385.521" y2="167.189" gradientUnits="userSpaceOnUse">
<stop/>
<stop offset="1" stop-color="#666666"/>
</linearGradient>
<linearGradient id="paint6_linear_97_894" x1="227.708" y1="225.009" x2="268.86" y2="75.8418" gradientUnits="userSpaceOnUse">
<stop/>
<stop offset="1" stop-color="#666666"/>
</linearGradient>
<linearGradient id="paint7_linear_97_894" x1="196.369" y1="228.034" x2="121.099" y2="92.1746" gradientUnits="userSpaceOnUse">
<stop/>
<stop offset="1" stop-color="#666666"/>
</linearGradient>
</defs>
</svg>
