<svg width="74" height="74" viewBox="0 0 74 74" fill="none" xmlns="http://www.w3.org/2000/svg">
<ellipse cx="37" cy="37" rx="36" ry="36" transform="rotate(-180 37 37)" fill="black" stroke="white" stroke-width="2" stroke-miterlimit="22.9256"/>
<path d="M37.4857 49.9531C37.9064 49.9531 38.2475 49.612 38.2475 49.1913C38.2475 48.7707 37.9064 48.4296 37.4857 48.4296C37.0651 48.4296 36.724 48.7707 36.724 49.1913C36.724 49.612 37.0651 49.9531 37.4857 49.9531Z" fill="white"/>
<path d="M25.2984 53C25.7191 53 26.0601 52.659 26.0601 52.2383C26.0601 51.8176 25.7191 51.4766 25.2984 51.4766C24.8777 51.4766 24.5367 51.8176 24.5367 52.2383C24.5367 52.659 24.8777 53 25.2984 53Z" fill="white"/>
<path d="M16.1578 45.3828C16.5785 45.3828 16.9195 45.0417 16.9195 44.6211C16.9195 44.2004 16.5785 43.8593 16.1578 43.8593C15.7371 43.8593 15.3961 44.2004 15.3961 44.6211C15.3961 45.0417 15.7371 45.3828 16.1578 45.3828Z" fill="white"/>
<path d="M34.4389 30.1485C34.8596 30.1485 35.2007 29.8074 35.2007 29.3867C35.2007 28.9661 34.8596 28.625 34.4389 28.625C34.0182 28.625 33.6772 28.9661 33.6772 29.3867C33.6772 29.8074 34.0182 30.1485 34.4389 30.1485Z" fill="white"/>
<path d="M37.6421 35.0029L31.9984 34.0545C31.7507 34.0128 31.5394 33.8521 31.4338 33.6252L29.0155 28.3303C28.2025 26.5833 25.775 26.6022 24.9183 28.2388L22.2724 33.4214C22.1563 33.6446 21.9384 33.7956 21.6892 33.8261L16.009 34.5231C14.1341 34.7526 13.3283 37.0378 14.6567 38.3919L18.6653 42.4765C18.8409 42.6558 18.9167 42.9087 18.8692 43.1557L17.7772 48.7726C17.6098 49.6332 17.9386 50.4969 18.6363 51.028C19.3334 51.5583 20.255 51.6454 21.0383 51.2556L26.1613 48.7049C26.3874 48.5926 26.6515 48.6 26.871 48.7212L31.8764 51.4959C32.2245 51.6885 32.6054 51.7845 32.9855 51.7845C33.44 51.7845 33.8938 51.6469 34.2865 51.3747C35.0051 50.8763 35.3726 50.0275 35.2446 49.1609C35.2446 49.1609 35.2446 49.1609 35.2446 49.1601L34.4026 43.4993C34.3654 43.2516 34.4532 43.0016 34.6362 42.8306L38.8226 38.9283C40.2172 37.626 39.4882 35.3127 37.6421 35.0029ZM34.384 38.8353C31.0135 41.9786 30.9926 41.6106 31.7157 46.4681C31.8081 47.0934 31.1421 47.5499 30.5933 47.2469L28.3498 46.0032C28.349 46.0032 28.349 46.0024 28.349 46.0024C26.2561 44.8408 24.6419 46.006 22.5089 47.0676C21.9544 47.3481 21.2998 46.8634 21.4221 46.2405C22.302 41.7127 22.5335 42.0013 19.0938 38.4961C18.6522 38.0464 18.9189 37.283 19.5446 37.207C24.43 36.6061 24.067 36.6725 26.1903 32.6002C26.4862 32.0361 27.2931 32.0674 27.5561 32.6299C29.5034 36.8051 29.1482 36.7125 33.9913 37.5268C34.6116 37.6318 34.8459 38.4042 34.384 38.8353Z" fill="white"/>
<path d="M19.2047 28.5163H18.443V27.7546C18.443 26.7505 16.9195 26.7464 16.9195 27.7546V28.5163H16.1578C15.1537 28.5163 15.1496 30.0398 16.1578 30.0398H16.9195V30.8015C16.9195 31.8056 18.443 31.8097 18.443 30.8015V30.0398H19.2047C20.2088 30.0398 20.2129 28.5163 19.2047 28.5163Z" fill="white"/>
</svg>
