<svg width="409" height="409" viewBox="0 0 409 409" fill="none" xmlns="http://www.w3.org/2000/svg">
<g filter="url(#filter0_i_323_1577)">
<path fill-rule="evenodd" clip-rule="evenodd" d="M127.069 15.1707C150.686 5.49981 176.51 0.119492 203.579 0V199.883L127.069 15.1707Z" fill="url(#paint0_linear_323_1577)"/>
</g>
<path fill-rule="evenodd" clip-rule="evenodd" d="M60.5474 59.2455C79.0352 40.9202 101.004 26.1001 125.373 15.8636L201.886 200.584L60.5474 59.2455Z" fill="white"/>
<g filter="url(#filter1_i_323_1577)">
<path fill-rule="evenodd" clip-rule="evenodd" d="M15.8637 125.372C26.097 101.002 40.9204 79.0366 59.2456 60.5472L200.584 201.885L15.8637 125.372Z" fill="url(#paint1_linear_323_1577)"/>
</g>
<path fill-rule="evenodd" clip-rule="evenodd" d="M0 203.097C0.119492 176.027 5.503 150.204 15.1707 126.588L199.881 203.097H0Z" fill="white"/>
<g filter="url(#filter2_i_323_1577)">
<path fill-rule="evenodd" clip-rule="evenodd" d="M15.1707 281.931C5.49981 258.314 0.119492 232.49 0 205.421H199.883L15.1707 281.931Z" fill="url(#paint2_linear_323_1577)"/>
</g>
<path fill-rule="evenodd" clip-rule="evenodd" d="M59.2456 348.453C40.9204 329.965 26.1002 307.996 15.8637 283.628L200.584 207.115L59.2456 348.453Z" fill="white"/>
<g filter="url(#filter3_i_323_1577)">
<path fill-rule="evenodd" clip-rule="evenodd" d="M125.373 393.136C101.003 382.903 79.0368 368.079 60.5474 349.754L201.886 208.416L125.373 393.136Z" fill="url(#paint3_linear_323_1577)"/>
</g>
<path fill-rule="evenodd" clip-rule="evenodd" d="M203.581 409C176.51 408.88 150.687 403.497 127.071 393.829L203.581 209.117V409Z" fill="white"/>
<g filter="url(#filter4_i_323_1577)">
<path fill-rule="evenodd" clip-rule="evenodd" d="M281.931 393.829C258.314 403.5 232.49 408.88 205.421 409V209.117L281.931 393.829Z" fill="url(#paint4_linear_323_1577)"/>
</g>
<path fill-rule="evenodd" clip-rule="evenodd" d="M348.453 349.754C329.965 368.079 307.996 382.9 283.628 393.136L207.115 208.416L348.453 349.754Z" fill="white"/>
<g filter="url(#filter5_i_323_1577)">
<path fill-rule="evenodd" clip-rule="evenodd" d="M393.136 283.628C382.903 307.997 368.08 329.963 349.754 348.453L208.416 207.115L393.136 283.628Z" fill="url(#paint5_linear_323_1577)"/>
</g>
<path fill-rule="evenodd" clip-rule="evenodd" d="M409 205.421C408.88 232.491 403.497 258.314 393.829 281.931L209.119 205.421H409Z" fill="white"/>
<g filter="url(#filter6_i_323_1577)">
<path fill-rule="evenodd" clip-rule="evenodd" d="M393.829 127.069C403.5 150.686 408.88 176.51 409 203.579H209.117L393.829 127.069Z" fill="url(#paint6_linear_323_1577)"/>
</g>
<path fill-rule="evenodd" clip-rule="evenodd" d="M349.754 60.5472C368.08 79.035 382.9 101.004 393.136 125.372L208.416 201.885L349.754 60.5472Z" fill="white"/>
<g filter="url(#filter7_i_323_1577)">
<path fill-rule="evenodd" clip-rule="evenodd" d="M283.628 15.8636C307.998 26.0969 329.963 40.9202 348.453 59.2455L207.115 200.584L283.628 15.8636Z" fill="url(#paint7_linear_323_1577)"/>
</g>
<path fill-rule="evenodd" clip-rule="evenodd" d="M205.421 0C232.491 0.119492 258.314 5.503 281.931 15.1707L205.421 199.883V0Z" fill="white"/>
<path d="M34.1877 162.821L44.3137 165.066L33.8126 172.608L40.1806 183.71L30.0546 181.465L26.4712 175.287L20.6128 179.372L10.4868 177.128L20.9841 169.764L14.6199 158.483L24.7459 160.728L28.3216 166.94L34.1877 162.821ZM73.5759 182.32C72.8504 185.485 70.9004 187.481 67.7261 188.309C64.5517 189.137 60.6725 189.042 56.0884 188.026C50.843 186.863 47.0529 185.126 44.7181 182.814C42.4061 180.507 41.6571 177.517 42.4711 173.846L51.6735 175.886C51.3246 177.459 51.7218 178.744 52.865 179.739C54.0311 180.739 55.5631 181.437 57.4611 181.834C59.0246 182.229 60.4157 182.322 61.6343 182.113C62.858 181.882 63.6 181.233 63.8604 180.166C64.0348 179.272 63.8216 178.614 63.2209 178.194C62.643 177.779 61.7155 177.43 60.4383 177.147L54.1096 175.744L55.2775 170.475L61.6062 171.878C63.2939 172.253 64.4163 172.262 64.9736 171.907C65.5308 171.552 65.8625 171.135 65.9687 170.656C66.1204 169.972 65.6728 169.346 64.6261 168.779C63.5794 168.212 62.2578 167.752 60.6614 167.398C58.7634 167.001 57.1126 166.839 55.7089 166.91C54.3281 166.987 53.5542 167.402 53.3874 168.154L44.185 166.114C44.9131 162.83 47.0595 160.973 50.6242 160.543C54.2168 160.095 58.0201 160.316 62.034 161.206C64.4743 161.747 66.7081 162.41 68.7355 163.194C70.7908 163.961 72.4928 165.08 73.8415 166.551C75.1902 168.023 75.6218 169.853 75.1365 172.042C74.6663 174.163 72.7691 175.274 69.4449 175.375C70.887 176.101 71.9744 177.024 72.7072 178.144C73.4679 179.245 73.7625 180.615 73.5911 182.252L73.5759 182.32Z" fill="black"/>
<path d="M159.841 373.651L162.181 363.547L169.624 374.118L180.786 367.855L178.446 377.96L172.234 381.485L176.264 387.381L173.924 397.486L166.66 386.92L155.32 393.177L157.66 383.073L163.905 379.556L159.841 373.651ZM181.396 334.155L188.224 335.736L180.809 367.757L177.054 366.887C174.163 366.218 172.118 364.953 170.919 363.092C169.696 361.227 169.021 359.38 168.893 357.552C168.77 355.701 168.803 353.539 168.992 351.065C169.035 350.571 169.116 349.703 169.236 348.46C169.382 347.103 169.48 346.059 169.53 345.327C169.562 344.567 169.485 343.914 169.3 343.367C169.092 342.816 168.727 342.479 168.203 342.358C167.407 342.173 166.692 342.619 166.059 343.696C165.431 344.749 164.928 346.095 164.548 347.734C164.235 349.292 164.192 350.673 164.416 351.876C164.647 353.056 165.24 353.757 166.196 353.978L163.911 363.843C160.315 363.011 158.269 360.871 157.773 357.423C157.254 353.969 157.453 350.263 158.37 346.303C158.96 343.754 159.701 341.384 160.592 339.193C161.46 336.996 162.734 335.169 164.415 333.712C166.077 332.226 168.149 331.771 170.63 332.345C172.564 332.793 173.966 333.729 174.835 335.154C175.686 336.55 176.178 337.946 176.31 339.344C176.42 340.736 176.448 342.373 176.396 344.255C176.38 344.947 176.222 346.301 175.923 348.318C175.519 351.198 175.275 353.443 175.19 355.054C175.105 356.665 175.358 357.538 175.95 357.675L181.396 334.155Z" fill="black"/>
<path d="M115.07 53.1459L120.655 61.8859L107.894 59.8105L104.563 72.1681L98.9782 63.4281L100.804 56.5234L93.771 55.2786L88.1866 46.5385L100.819 48.7378L104.279 36.2563L109.863 44.9964L108.008 51.92L115.07 53.1459ZM134.655 71.1071L112.805 85.0683L107.806 77.2436L121.536 68.4707L118.385 63.5396L122.785 60.7285C125.615 65.1576 128.27 66.5798 130.75 64.995L134.655 71.1071Z" fill="black"/>
<path d="M374.16 247.912L364.142 245.228L374.962 238.151L369.084 226.782L379.103 229.466L382.413 235.795L388.444 231.969L398.463 234.654L387.654 241.552L393.52 253.1L383.502 250.415L380.2 244.053L374.16 247.912ZM347.586 247.866L354.297 222.82L363.267 225.223L359.049 240.961L364.702 242.476L363.35 247.519C358.274 246.159 355.354 246.9 354.592 249.743L347.586 247.866ZM329.545 243.539C325.116 242.377 321.924 240.796 319.969 238.797C318.007 236.82 316.928 234.802 316.73 232.742C316.527 230.704 316.706 228.636 317.268 226.538C318.169 223.175 320.028 220.433 322.846 218.31C325.642 216.181 330.187 215.96 336.482 217.647C340.905 218.832 344.149 220.487 346.216 222.613C348.26 224.733 349.425 226.883 349.711 229.064C349.997 231.244 349.856 233.262 349.286 235.117C348.766 237.057 347.861 238.858 346.569 240.519C345.249 242.197 343.194 243.412 340.405 244.164C337.587 244.933 333.967 244.724 329.545 243.539ZM334.544 224.746C332.039 224.075 330.069 224.163 328.632 225.012C327.167 225.877 326.233 227.15 325.831 228.832C325.363 230.399 325.556 231.89 326.41 233.304C327.242 234.712 328.911 235.751 331.415 236.423C333.897 237.088 335.85 237.019 337.275 236.215C338.699 235.412 339.601 234.214 339.979 232.623C340.471 230.965 340.311 229.399 339.497 227.923C338.677 226.47 337.026 225.411 334.544 224.746Z" fill="black"/>
<path d="M41.985 307.033L45.0932 322.747L47.8241 319.375C52.9219 322.903 59.0456 324.476 65.2758 323.822C65.4845 323.8 67.668 323.52 67.668 323.52L67.4994 311.299L65.1655 311.738C64.7902 311.809 64.4064 311.865 64.0246 311.905C60.9865 312.224 57.9922 311.555 55.4111 310.008L58.0016 306.809L41.985 307.033ZM63.5691 315.948L63.6242 319.945C58.2201 320.213 52.9763 318.505 48.7387 315.073L47.4383 314.02L46.8331 310.96L49.964 310.916L51.2572 311.963C54.7636 314.803 59.1055 316.202 63.5691 315.948ZM75.9451 295.842C76.0157 296.216 76.0719 296.599 76.112 296.982C76.431 300.02 75.762 303.014 74.2145 305.595L71.016 303.005L71.2395 319.022L86.9532 315.914L83.5817 313.183C87.1095 308.085 88.6827 301.961 88.0286 295.731C88.0068 295.524 87.7276 293.339 87.7276 293.339L75.5046 293.507L75.9451 295.842ZM84.1518 297.382C84.4196 302.786 82.7118 308.03 79.2795 312.268L78.2263 313.568L75.1661 314.173L75.1224 311.042L76.1698 309.749C79.0098 306.243 80.4087 301.901 80.1547 297.438L84.1518 297.382ZM37.1847 301.069C37.2064 301.276 37.4856 303.461 37.4856 303.461L49.7081 303.293L49.2683 300.959C49.1974 300.583 49.1413 300.199 49.1012 299.818C48.7822 296.78 49.4513 293.786 50.9988 291.205L54.1973 293.795L53.9738 277.778L38.26 280.886L41.6315 283.617C38.1037 288.715 36.5306 294.839 37.1847 301.069ZM46.9869 283.232L50.0471 282.626L50.0908 285.757L49.0433 287.051C46.2033 290.557 44.8044 294.899 45.0584 299.362L41.0615 299.417C40.7937 294.013 42.5015 288.77 45.9338 284.532L46.9869 283.232ZM61.1886 284.895C64.2268 284.576 67.221 285.245 69.8021 286.792L67.2114 289.991L83.2282 289.767L80.1202 274.053L77.3893 277.425C72.2914 273.897 66.1676 272.324 59.9375 272.978C59.7287 273 57.5453 273.279 57.5453 273.279L57.7138 285.501L60.0477 285.062C60.423 284.991 60.8068 284.935 61.1886 284.895ZM61.5891 276.855C66.9931 276.587 72.237 278.295 76.4746 281.727L77.775 282.78L78.3802 285.84L75.2494 285.884L73.956 284.837C70.4498 281.997 66.1079 280.598 61.6443 280.852L61.5891 276.855Z" fill="black"/>
<path d="M350.102 116.207C349.016 116.927 347.897 116.968 346.746 116.33C345.594 115.693 344.493 114.593 343.442 113.031C342.239 111.242 341.618 109.69 341.579 108.372C341.545 107.063 342.153 105.987 343.405 105.145L345.516 108.282C344.979 108.643 344.739 109.126 344.796 109.731C344.859 110.344 345.111 110.971 345.553 111.611C345.898 112.158 346.277 112.569 346.688 112.846C347.108 113.117 347.503 113.133 347.874 112.895C348.172 112.684 348.291 112.434 348.233 112.145C348.18 111.865 348.007 111.507 347.714 111.072L346.263 108.914L348.059 107.706L349.51 109.863C349.897 110.439 350.221 110.752 350.481 110.803C350.741 110.854 350.953 110.824 351.116 110.714C351.349 110.557 351.392 110.252 351.245 109.798C351.097 109.344 350.84 108.844 350.474 108.3C350.032 107.66 349.598 107.156 349.17 106.789C348.747 106.43 348.408 106.336 348.151 106.509L346.041 103.372C347.16 102.619 348.298 102.672 349.453 103.533C350.62 104.396 351.665 105.512 352.585 106.88C353.145 107.712 353.611 108.522 353.983 109.311C354.368 110.102 354.554 110.898 354.539 111.698C354.524 112.499 354.143 113.15 353.397 113.652C352.674 114.138 351.815 113.937 350.821 113.047C351.04 113.657 351.101 114.226 351.004 114.753C350.92 115.284 350.627 115.763 350.125 116.192L350.102 116.207Z" fill="black"/>
<path d="M57.3275 299.079L65.9934 293.327L68.0531 296.43L62.6077 300.044L63.9057 302L62.1608 303.158C60.9949 301.402 59.9202 300.85 58.9365 301.503L57.3275 299.079Z" fill="black"/>
<path d="M369.287 104.042L368.332 88.0517L365.17 91.0233C360.596 86.8388 354.741 84.4524 348.48 84.2584C348.27 84.2519 346.069 84.2337 346.069 84.2337L344.584 96.3662L346.956 96.2459C347.337 96.2265 347.725 96.2228 348.109 96.2346C351.162 96.3292 354.038 97.397 356.387 99.2792L353.387 102.098L369.287 104.042ZM349.106 92.2905L349.592 88.3228C354.983 88.7879 359.948 91.1888 363.682 95.1624L364.828 96.3817L365.015 99.4956L361.906 99.1157L360.767 97.9029C357.676 94.6152 353.563 92.6422 349.106 92.2905ZM334.126 110.54C334.107 110.159 334.103 109.772 334.115 109.387C334.21 106.334 335.277 103.458 337.159 101.109L339.978 104.109L341.922 88.2085L325.932 89.164L328.904 92.3256C324.719 96.8998 322.333 102.755 322.139 109.016C322.132 109.224 322.113 111.427 322.113 111.427L334.247 112.912L334.126 110.54ZM326.203 107.904C326.668 102.513 329.069 97.5483 333.043 93.8135L334.262 92.6675L337.376 92.4815L336.996 95.5896L335.783 96.7294C332.496 99.8195 330.523 103.933 330.171 108.389L326.203 107.904ZM373.237 110.599C373.244 110.391 373.263 108.189 373.263 108.189L361.13 106.703L361.25 109.075C361.269 109.457 361.273 109.845 361.261 110.228C361.167 113.282 360.099 116.158 358.217 118.506L355.398 115.507L353.454 131.407L369.444 130.452L366.472 127.29C370.657 122.716 373.043 116.861 373.237 110.599ZM361.114 126.948L358 127.134L358.38 124.026L359.593 122.886C362.881 119.796 364.854 115.683 365.205 111.226L369.173 111.712C368.708 117.102 366.307 122.067 362.333 125.802L361.114 126.948ZM347.267 123.381C344.214 123.286 341.338 122.219 338.99 120.336L341.989 117.517L326.089 115.574L327.044 131.564L330.206 128.592C334.78 132.777 340.635 135.163 346.896 135.357C347.106 135.364 349.307 135.382 349.307 135.382L350.792 123.249L348.421 123.37C348.039 123.389 347.651 123.393 347.267 123.381ZM345.784 131.293C340.393 130.828 335.428 128.427 331.694 124.453L330.548 123.234L330.362 120.12L333.47 120.5L334.609 121.713C337.7 125 341.813 126.973 346.27 127.325L345.784 131.293Z" fill="black"/>
<path d="M233.28 21.662C234.239 22.1141 235.25 22.4935 236.272 22.8148C237.157 23.1091 238.057 23.3612 238.944 23.6032C238.882 23.2292 238.782 22.8176 238.647 22.3916C238.123 20.7208 237.115 18.7515 235.832 17.2633L229.557 18.6998C230.242 19.8971 231.775 20.9593 233.28 21.662Z" fill="black"/>
<path d="M241.15 16.0536L237.457 16.8964C238.78 18.6035 239.741 20.6992 240.209 22.4572C241.324 21.0026 243.026 19.4372 244.859 18.3572L241.745 16.1705C241.574 16.0463 241.356 16.0036 241.15 16.0536Z" fill="black"/>
<path d="M241.682 22.98C241.388 23.3292 241.139 23.6724 240.94 23.9951C241.853 24.1065 242.782 24.2135 243.712 24.2755C244.78 24.3646 245.852 24.3941 246.911 24.3382C248.57 24.2569 250.391 23.853 251.477 23.0035L246.204 19.2997C244.413 20.2069 242.761 21.6691 241.682 22.98Z" fill="black"/>
<path d="M229.431 24.4114C229.522 24.3313 229.631 24.2773 229.749 24.2478L233.57 23.4075C233.257 23.2781 232.951 23.1428 232.648 23.0003C231.42 22.42 228.966 21.0563 228.058 19.0388L223.323 20.1217L229.431 24.4114Z" fill="black"/>
<path d="M247.597 28.7544L243.188 25.7178C242.112 25.6273 241.053 25.4947 240.008 25.3649L239.721 25.3311L239.575 25.3026L239.275 25.221C238.258 24.9461 237.228 24.6682 236.205 24.3469L230.975 25.4911L237.899 30.3481L238.561 30.8172L239.351 30.6331L247.597 28.7544Z" fill="black"/>
<path d="M252.736 23.884C251.133 25.4084 248.346 25.7432 246.99 25.8162C246.655 25.8333 246.321 25.8432 245.982 25.8444L249.201 28.067C249.3 28.1392 249.38 28.2303 249.435 28.3389L256.711 26.6769L252.736 23.884Z" fill="black"/>
<path d="M218.654 40.0626C218.599 40.3457 218.714 40.6398 218.953 40.8072L225.187 45.1821L228.973 25.8971L222.348 21.2493L218.654 40.0626Z" fill="black"/>
<path d="M226.512 46.1132L233.799 51.23L237.585 31.9449L230.298 26.8281L226.512 46.1132Z" fill="black"/>
<path d="M235.251 51.515L243.932 49.5333L247.718 30.2482L239.037 32.2299L235.251 51.515Z" fill="black"/>
<path d="M249.296 29.8872L245.51 49.1723L252.936 47.4793C253.22 47.4145 253.438 47.186 253.494 46.9029L257.187 28.0896L249.296 29.8872Z" fill="black"/>
<path d="M251.61 17.4892C250.212 16.7775 248.478 16.7763 246.586 17.5054C246.007 17.7308 245.423 18.0158 244.859 18.3572L246.204 19.2997C246.507 19.1405 246.812 19.0046 247.122 18.8845C248.216 18.4585 249.198 18.3347 250.047 18.5014C250.366 18.5641 250.663 18.6675 250.937 18.8043C251.917 19.3057 252.744 20.3879 252.407 21.6859C252.274 22.2101 251.94 22.6421 251.477 23.0035L252.736 23.884C253.253 23.4049 253.649 22.8043 253.841 22.058C254.309 20.2503 253.419 18.4097 251.61 17.4892Z" fill="black"/>
<path d="M231.519 13.5446C229.496 13.7128 227.976 15.0802 227.726 16.9307C227.621 17.6941 227.762 18.4001 228.058 19.0388L229.557 18.6998C229.265 18.1902 229.12 17.6641 229.195 17.1286C229.373 15.7992 230.548 15.1103 231.645 15.0166C231.951 14.9937 232.264 15.01 232.576 15.0713C233.752 15.3022 234.868 16.1468 235.832 17.2633L237.457 16.8964C236.202 15.2631 234.625 13.966 232.861 13.6197C232.411 13.5313 231.964 13.5038 231.519 13.5446Z" fill="black"/>
<path d="M311.846 353.05C310.839 353.38 309.843 353.798 308.879 354.266C308.034 354.659 307.206 355.093 306.395 355.526C306.697 355.756 307.052 355.986 307.443 356.203C308.97 357.059 311.055 357.799 313.01 358.001L316.587 352.649C315.267 352.248 313.423 352.528 311.846 353.05Z" fill="black"/>
<path d="M309.973 362.531L312.08 359.383C309.946 359.05 307.809 358.185 306.261 357.228C306.449 359.051 306.286 361.358 305.695 363.401L309.46 362.854C309.67 362.827 309.858 362.708 309.973 362.531Z" fill="black"/>
<path d="M304.831 357.859C304.806 357.403 304.751 356.983 304.674 356.612C303.934 357.157 303.185 357.717 302.466 358.31C301.628 358.979 300.828 359.693 300.097 360.46C298.946 361.659 297.899 363.202 297.692 364.565L304.069 363.639C304.749 361.75 304.947 359.553 304.831 357.859Z" fill="black"/>
<path d="M312.758 348.409C312.747 348.529 312.705 348.643 312.639 348.746L310.437 351.98C310.754 351.859 311.069 351.748 311.387 351.643C312.679 351.222 315.399 350.53 317.444 351.374L320.144 347.336L312.758 348.409Z" fill="black"/>
<path d="M296.567 357.72L301.857 356.901C302.702 356.229 303.563 355.598 304.412 354.976L304.644 354.803L304.769 354.724L305.044 354.577C305.972 354.079 306.912 353.574 307.876 353.105L310.894 348.684L302.525 349.904L301.722 350.017L301.274 350.693L296.567 357.72Z" fill="black"/>
<path d="M296.172 364.79C296.292 362.58 298.089 360.424 299.025 359.44C299.257 359.198 299.493 358.961 299.739 358.728L295.872 359.321C295.75 359.337 295.629 359.325 295.515 359.283L291.365 365.487L296.172 364.79Z" fill="black"/>
<path d="M309.852 329.63C309.698 329.386 309.412 329.251 309.123 329.293L301.587 330.391L312.071 347.014L320.079 345.846L309.852 329.63Z" fill="black"/>
<path d="M299.984 330.623L291.173 331.904L301.657 348.528L310.469 347.247L299.984 330.623Z" fill="black"/>
<path d="M289.921 332.694L284.969 340.093L295.453 356.717L300.406 349.317L289.921 332.694Z" fill="black"/>
<path d="M294.553 358.063L284.069 341.439L279.831 347.768C279.669 348.01 279.667 348.326 279.821 348.57L290.049 364.786L294.553 358.063Z" fill="black"/>
<path d="M301.381 368.667C302.886 368.225 304.148 367.036 305.023 365.207C305.29 364.645 305.518 364.037 305.695 363.401L304.069 363.639C303.959 363.963 303.83 364.271 303.687 364.572C303.184 365.632 302.555 366.396 301.823 366.858C301.548 367.031 301.261 367.159 300.968 367.248C299.911 367.556 298.566 367.337 297.921 366.162C297.658 365.689 297.604 365.146 297.692 364.565L296.172 364.79C296.126 365.492 296.249 366.201 296.622 366.876C297.523 368.512 299.433 369.239 301.381 368.667Z" fill="black"/>
<path d="M318.699 357.744C320.054 356.234 320.221 354.196 319.133 352.678C318.685 352.051 318.098 351.634 317.444 351.374L316.587 352.649C317.149 352.819 317.616 353.102 317.929 353.543C318.712 354.632 318.33 355.94 317.597 356.76C317.39 356.987 317.151 357.19 316.882 357.36C315.868 357.999 314.477 358.151 313.01 358.001L312.08 359.383C314.114 359.709 316.151 359.57 317.671 358.611C318.059 358.367 318.403 358.08 318.699 357.744Z" fill="black"/>
<defs>
<filter id="filter0_i_323_1577" x="127.069" y="0" width="76.5098" height="199.883" filterUnits="userSpaceOnUse" color-interpolation-filters="sRGB">
<feFlood flood-opacity="0" result="BackgroundImageFix"/>
<feBlend mode="normal" in="SourceGraphic" in2="BackgroundImageFix" result="shape"/>
<feColorMatrix in="SourceAlpha" type="matrix" values="0 0 0 0 0 0 0 0 0 0 0 0 0 0 0 0 0 0 127 0" result="hardAlpha"/>
<feOffset/>
<feGaussianBlur stdDeviation="12.5"/>
<feComposite in2="hardAlpha" operator="arithmetic" k2="-1" k3="1"/>
<feColorMatrix type="matrix" values="0 0 0 0 0 0 0 0 0 0 0 0 0 0 0 0 0 0 1 0"/>
<feBlend mode="normal" in2="shape" result="effect1_innerShadow_323_1577"/>
</filter>
<filter id="filter1_i_323_1577" x="15.8637" y="60.5472" width="184.72" height="141.338" filterUnits="userSpaceOnUse" color-interpolation-filters="sRGB">
<feFlood flood-opacity="0" result="BackgroundImageFix"/>
<feBlend mode="normal" in="SourceGraphic" in2="BackgroundImageFix" result="shape"/>
<feColorMatrix in="SourceAlpha" type="matrix" values="0 0 0 0 0 0 0 0 0 0 0 0 0 0 0 0 0 0 127 0" result="hardAlpha"/>
<feOffset/>
<feGaussianBlur stdDeviation="12.5"/>
<feComposite in2="hardAlpha" operator="arithmetic" k2="-1" k3="1"/>
<feColorMatrix type="matrix" values="0 0 0 0 0 0 0 0 0 0 0 0 0 0 0 0 0 0 1 0"/>
<feBlend mode="normal" in2="shape" result="effect1_innerShadow_323_1577"/>
</filter>
<filter id="filter2_i_323_1577" x="0" y="205.421" width="199.883" height="76.5099" filterUnits="userSpaceOnUse" color-interpolation-filters="sRGB">
<feFlood flood-opacity="0" result="BackgroundImageFix"/>
<feBlend mode="normal" in="SourceGraphic" in2="BackgroundImageFix" result="shape"/>
<feColorMatrix in="SourceAlpha" type="matrix" values="0 0 0 0 0 0 0 0 0 0 0 0 0 0 0 0 0 0 127 0" result="hardAlpha"/>
<feOffset/>
<feGaussianBlur stdDeviation="12.5"/>
<feComposite in2="hardAlpha" operator="arithmetic" k2="-1" k3="1"/>
<feColorMatrix type="matrix" values="0 0 0 0 0 0 0 0 0 0 0 0 0 0 0 0 0 0 1 0"/>
<feBlend mode="normal" in2="shape" result="effect1_innerShadow_323_1577"/>
</filter>
<filter id="filter3_i_323_1577" x="60.5474" y="208.416" width="141.338" height="184.72" filterUnits="userSpaceOnUse" color-interpolation-filters="sRGB">
<feFlood flood-opacity="0" result="BackgroundImageFix"/>
<feBlend mode="normal" in="SourceGraphic" in2="BackgroundImageFix" result="shape"/>
<feColorMatrix in="SourceAlpha" type="matrix" values="0 0 0 0 0 0 0 0 0 0 0 0 0 0 0 0 0 0 127 0" result="hardAlpha"/>
<feOffset/>
<feGaussianBlur stdDeviation="12.5"/>
<feComposite in2="hardAlpha" operator="arithmetic" k2="-1" k3="1"/>
<feColorMatrix type="matrix" values="0 0 0 0 0 0 0 0 0 0 0 0 0 0 0 0 0 0 1 0"/>
<feBlend mode="normal" in2="shape" result="effect1_innerShadow_323_1577"/>
</filter>
<filter id="filter4_i_323_1577" x="205.421" y="209.117" width="76.5098" height="199.883" filterUnits="userSpaceOnUse" color-interpolation-filters="sRGB">
<feFlood flood-opacity="0" result="BackgroundImageFix"/>
<feBlend mode="normal" in="SourceGraphic" in2="BackgroundImageFix" result="shape"/>
<feColorMatrix in="SourceAlpha" type="matrix" values="0 0 0 0 0 0 0 0 0 0 0 0 0 0 0 0 0 0 127 0" result="hardAlpha"/>
<feOffset/>
<feGaussianBlur stdDeviation="12.5"/>
<feComposite in2="hardAlpha" operator="arithmetic" k2="-1" k3="1"/>
<feColorMatrix type="matrix" values="0 0 0 0 0 0 0 0 0 0 0 0 0 0 0 0 0 0 1 0"/>
<feBlend mode="normal" in2="shape" result="effect1_innerShadow_323_1577"/>
</filter>
<filter id="filter5_i_323_1577" x="208.416" y="207.115" width="184.72" height="141.338" filterUnits="userSpaceOnUse" color-interpolation-filters="sRGB">
<feFlood flood-opacity="0" result="BackgroundImageFix"/>
<feBlend mode="normal" in="SourceGraphic" in2="BackgroundImageFix" result="shape"/>
<feColorMatrix in="SourceAlpha" type="matrix" values="0 0 0 0 0 0 0 0 0 0 0 0 0 0 0 0 0 0 127 0" result="hardAlpha"/>
<feOffset/>
<feGaussianBlur stdDeviation="12.5"/>
<feComposite in2="hardAlpha" operator="arithmetic" k2="-1" k3="1"/>
<feColorMatrix type="matrix" values="0 0 0 0 0 0 0 0 0 0 0 0 0 0 0 0 0 0 1 0"/>
<feBlend mode="normal" in2="shape" result="effect1_innerShadow_323_1577"/>
</filter>
<filter id="filter6_i_323_1577" x="209.117" y="127.069" width="199.883" height="76.5098" filterUnits="userSpaceOnUse" color-interpolation-filters="sRGB">
<feFlood flood-opacity="0" result="BackgroundImageFix"/>
<feBlend mode="normal" in="SourceGraphic" in2="BackgroundImageFix" result="shape"/>
<feColorMatrix in="SourceAlpha" type="matrix" values="0 0 0 0 0 0 0 0 0 0 0 0 0 0 0 0 0 0 127 0" result="hardAlpha"/>
<feOffset/>
<feGaussianBlur stdDeviation="12.5"/>
<feComposite in2="hardAlpha" operator="arithmetic" k2="-1" k3="1"/>
<feColorMatrix type="matrix" values="0 0 0 0 0 0 0 0 0 0 0 0 0 0 0 0 0 0 1 0"/>
<feBlend mode="normal" in2="shape" result="effect1_innerShadow_323_1577"/>
</filter>
<filter id="filter7_i_323_1577" x="207.115" y="15.8636" width="141.338" height="184.72" filterUnits="userSpaceOnUse" color-interpolation-filters="sRGB">
<feFlood flood-opacity="0" result="BackgroundImageFix"/>
<feBlend mode="normal" in="SourceGraphic" in2="BackgroundImageFix" result="shape"/>
<feColorMatrix in="SourceAlpha" type="matrix" values="0 0 0 0 0 0 0 0 0 0 0 0 0 0 0 0 0 0 127 0" result="hardAlpha"/>
<feOffset/>
<feGaussianBlur stdDeviation="12.5"/>
<feComposite in2="hardAlpha" operator="arithmetic" k2="-1" k3="1"/>
<feColorMatrix type="matrix" values="0 0 0 0 0 0 0 0 0 0 0 0 0 0 0 0 0 0 1 0"/>
<feBlend mode="normal" in2="shape" result="effect1_innerShadow_323_1577"/>
</filter>
<linearGradient id="paint0_linear_323_1577" x1="196.668" y1="164.325" x2="165.404" y2="4.84209" gradientUnits="userSpaceOnUse">
<stop/>
<stop offset="1" stop-color="#666666"/>
</linearGradient>
<linearGradient id="paint1_linear_323_1577" x1="168.498" y1="180.497" x2="34.43" y2="89.7267" gradientUnits="userSpaceOnUse">
<stop/>
<stop offset="1" stop-color="#666666"/>
</linearGradient>
<linearGradient id="paint2_linear_323_1577" x1="161.195" y1="211.797" x2="4.695" y2="244.14" gradientUnits="userSpaceOnUse">
<stop/>
<stop offset="1" stop-color="#666666"/>
</linearGradient>
<linearGradient id="paint3_linear_323_1577" x1="181.018" y1="241.01" x2="90.7701" y2="374.035" gradientUnits="userSpaceOnUse">
<stop/>
<stop offset="1" stop-color="#666666"/>
</linearGradient>
<linearGradient id="paint4_linear_323_1577" x1="213.362" y1="246.227" x2="244.14" y2="404.292" gradientUnits="userSpaceOnUse">
<stop/>
<stop offset="1" stop-color="#666666"/>
</linearGradient>
<linearGradient id="paint5_linear_323_1577" x1="238.923" y1="228.49" x2="375.6" y2="316.652" gradientUnits="userSpaceOnUse">
<stop/>
<stop offset="1" stop-color="#666666"/>
</linearGradient>
<linearGradient id="paint6_linear_323_1577" x1="246.748" y1="197.712" x2="404.814" y2="164.847" gradientUnits="userSpaceOnUse">
<stop/>
<stop offset="1" stop-color="#666666"/>
</linearGradient>
<linearGradient id="paint7_linear_323_1577" x1="229.012" y1="170.063" x2="319.26" y2="35.4733" gradientUnits="userSpaceOnUse">
<stop/>
<stop offset="1" stop-color="#666666"/>
</linearGradient>
</defs>
</svg>
