<svg width="11" height="12" viewBox="0 0 11 12" fill="none" xmlns="http://www.w3.org/2000/svg">
<path d="M10.1218 9.96158C10.3007 9.96158 10.4458 9.81648 10.4458 9.6375C10.4458 9.45851 10.3007 9.31342 10.1218 9.31342C9.94277 9.31342 9.79767 9.45851 9.79767 9.6375C9.79767 9.81648 9.94277 9.96158 10.1218 9.96158Z" fill="#FFD34F"/>
<path d="M4.9364 11.258C5.11538 11.258 5.26048 11.1129 5.26048 10.9339C5.26048 10.7549 5.11538 10.6098 4.9364 10.6098C4.75741 10.6098 4.61231 10.7549 4.61231 10.9339C4.61231 11.1129 4.75741 11.258 4.9364 11.258Z" fill="#FFD34F"/>
<path d="M1.04743 8.01709C1.22642 8.01709 1.37152 7.872 1.37152 7.69301C1.37152 7.51402 1.22642 7.36893 1.04743 7.36893C0.868447 7.36893 0.723351 7.51402 0.723351 7.69301C0.723351 7.872 0.868447 8.01709 1.04743 8.01709Z" fill="#FFD34F"/>
<path d="M8.82536 1.53546C9.00435 1.53546 9.14945 1.39036 9.14945 1.21137C9.14945 1.03239 9.00435 0.887291 8.82536 0.887291C8.64638 0.887291 8.50128 1.03239 8.50128 1.21137C8.50128 1.39036 8.64638 1.53546 8.82536 1.53546Z" fill="#FFD34F"/>
<path d="M10.1882 3.60085L7.78704 3.19732C7.68165 3.17961 7.59177 3.11125 7.54683 3.01471L6.51793 0.761925C6.17203 0.0186079 5.13922 0.0266451 4.77471 0.722992L3.64897 2.92799C3.59958 3.02294 3.50688 3.08718 3.40086 3.10016L0.984147 3.3967C0.186428 3.49436 -0.156388 4.46663 0.40877 5.04276L2.11431 6.7806C2.189 6.85687 2.22128 6.96449 2.20104 7.06955L1.73643 9.45934C1.66522 9.82551 1.80511 10.193 2.10197 10.4189C2.39853 10.6446 2.79065 10.6816 3.12392 10.5158L5.30357 9.43054C5.39978 9.38275 5.51213 9.38593 5.60551 9.4375L7.73514 10.618C7.88325 10.7 8.04529 10.7408 8.20703 10.7408C8.4004 10.7408 8.59347 10.6823 8.76056 10.5664C9.06628 10.3544 9.22264 9.99328 9.1682 9.62456C9.1682 9.62456 9.1682 9.62456 9.1682 9.62424L8.80993 7.21576C8.79412 7.11037 8.83145 7.00402 8.90932 6.93124L10.6905 5.27096C11.2838 4.71691 10.9737 3.73266 10.1882 3.60085ZM8.80203 5.23138C7.368 6.56874 7.3591 6.41221 7.66678 8.47886C7.70606 8.74491 7.42273 8.93912 7.18922 8.81023L6.23468 8.28106C6.23436 8.28106 6.23436 8.28074 6.23436 8.28074C5.34391 7.78651 4.65711 8.28225 3.74961 8.73396C3.51368 8.85328 3.23519 8.64706 3.28723 8.38203C3.66159 6.45563 3.76007 6.57842 2.29662 5.08707C2.10874 4.89576 2.22221 4.57094 2.48841 4.53859C4.56695 4.28296 4.41251 4.3112 5.31591 2.57858C5.44182 2.33859 5.78509 2.3519 5.89699 2.59124C6.7255 4.36761 6.57441 4.32824 8.63493 4.67469C8.89888 4.71937 8.99855 5.04797 8.80203 5.23138Z" fill="#FFD34F"/>
<path d="M2.34377 0.841037H2.01968V0.516954C2.01968 0.0897473 1.37152 0.0879973 1.37152 0.516954V0.841037H1.04743C0.620227 0.841037 0.618477 1.4892 1.04743 1.4892H1.37152V1.81329C1.37152 2.24049 2.01968 2.24224 2.01968 1.81329V1.4892H2.34377C2.77097 1.4892 2.77272 0.841037 2.34377 0.841037Z" fill="#FFD34F"/>
</svg>
