<svg width="18" height="18" viewBox="0 0 18 18" fill="none" xmlns="http://www.w3.org/2000/svg">
<path d="M16.1713 15.8301C16.4408 15.8301 16.6593 15.6116 16.6593 15.3421C16.6593 15.0726 16.4408 14.8541 16.1713 14.8541C15.9017 14.8541 15.6833 15.0726 15.6833 15.3421C15.6833 15.6116 15.9017 15.8301 16.1713 15.8301Z" fill="white"/>
<path d="M8.36343 17.7821C8.63294 17.7821 8.85143 17.5636 8.85143 17.2941C8.85143 17.0245 8.63294 16.8061 8.36343 16.8061C8.09391 16.8061 7.87543 17.0245 7.87543 17.2941C7.87543 17.5636 8.09391 17.7821 8.36343 17.7821Z" fill="white"/>
<path d="M2.50741 12.9021C2.77692 12.9021 2.99541 12.6836 2.99541 12.4141C2.99541 12.1446 2.77692 11.9261 2.50741 11.9261C2.23789 11.9261 2.01941 12.1446 2.01941 12.4141C2.01941 12.6836 2.23789 12.9021 2.50741 12.9021Z" fill="white"/>
<path d="M14.2194 3.14195C14.4889 3.14195 14.7074 2.92347 14.7074 2.65395C14.7074 2.38444 14.4889 2.16595 14.2194 2.16595C13.9499 2.16595 13.7314 2.38444 13.7314 2.65395C13.7314 2.92347 13.9499 3.14195 14.2194 3.14195Z" fill="white"/>
<path d="M16.6558 5.80454L12.6799 5.11529C12.5053 5.08503 12.3565 4.96827 12.2821 4.80338L10.5784 0.955492C10.0056 -0.314136 8.29548 -0.300408 7.69191 0.888991L5.82788 4.65525C5.74609 4.81744 5.59258 4.92716 5.41703 4.94934L1.41535 5.45584C0.0944502 5.62264 -0.473197 7.28333 0.462614 8.2674L3.28672 11.2357C3.41039 11.366 3.46384 11.5498 3.43032 11.7293L2.66101 15.8112C2.54309 16.4366 2.77474 17.0642 3.26629 17.4502C3.75734 17.8356 4.40663 17.8989 4.95846 17.6156L8.56762 15.762C8.72693 15.6804 8.91296 15.6858 9.06758 15.7739L12.5939 17.7902C12.8392 17.9303 13.1075 18 13.3753 18C13.6955 18 14.0152 17.9 14.2919 17.7022C14.7981 17.34 15.057 16.7232 14.9668 16.0934C14.9668 16.0934 14.9668 16.0934 14.9668 16.0928L14.3736 11.979C14.3474 11.799 14.4092 11.6174 14.5382 11.493L17.4875 8.65718C18.47 7.71082 17.9564 6.02969 16.6558 5.80454ZM14.3605 8.58957C11.986 10.8739 11.9712 10.6065 12.4807 14.1365C12.5458 14.5909 12.0766 14.9226 11.6899 14.7025L10.1094 13.7986C10.1089 13.7986 10.1089 13.7981 10.1089 13.7981C8.63441 12.9539 7.49719 13.8006 5.99452 14.5722C5.60385 14.776 5.14271 14.4238 5.22889 13.9711C5.84877 10.6807 6.01183 10.8904 3.58859 8.34309C3.27749 8.01631 3.46538 7.4615 3.90617 7.40626C7.3479 6.96962 7.09218 7.01785 8.58805 4.05845C8.79655 3.64852 9.36495 3.67126 9.55023 4.08007C10.9221 7.11421 10.6719 7.04697 14.0838 7.63872C14.5209 7.71503 14.6859 8.2763 14.3605 8.58957Z" fill="white"/>
<path d="M4.45941 2.09645H3.97141V1.60845C3.97141 0.965168 2.99541 0.962533 2.99541 1.60845V2.09645H2.50741C1.86412 2.09645 1.86149 3.07245 2.50741 3.07245H2.99541V3.56045C2.99541 4.20373 3.97141 4.20637 3.97141 3.56045V3.07245H4.45941C5.10269 3.07245 5.10532 2.09645 4.45941 2.09645Z" fill="white"/>
</svg>
