<svg width="43" height="40" viewBox="0 0 43 40" fill="none" xmlns="http://www.w3.org/2000/svg">
<path d="M30.942 7.34906L27.1383 0.832765C26.9573 0.522806 26.6599 0.297056 26.3123 0.207473C25.9665 0.121473 25.5956 0.171639 25.2875 0.356181L13.6595 7.33293L30.942 7.34906Z" fill="white"/>
<path d="M5.375 9.12461C4.38959 9.12461 3.58334 8.31836 3.58334 7.33294C3.58334 6.34753 4.38959 5.54127 5.375 5.54127H11.4129L17.3971 1.95794H5.375C2.72333 1.95794 0.519584 3.89294 0.0895834 6.43711C0.05375 6.58044 0 6.72378 0 6.88503V34.208C0 37.1642 2.41875 39.583 5.375 39.583H35.8334C37.8042 39.583 39.4167 37.9705 39.4167 35.9996V32.4163H34.9375C30.4942 32.4163 26.875 28.7971 26.875 24.3538C26.875 19.9104 30.4942 16.2913 34.9375 16.2913H39.4167V12.7079C39.4167 10.7371 37.8042 9.12461 35.8334 9.12461H5.375ZM34.0417 5.54127C34.0417 3.73169 32.6979 2.22669 30.9421 1.99377L34.0417 7.33294V5.54127Z" fill="white"/>
<path d="M41.6563 18.9788H34.9375C31.9741 18.9788 29.5625 21.3904 29.5625 24.3538C29.5625 27.3172 31.9741 29.7288 34.9375 29.7288H41.6563C42.398 29.7288 43 29.1268 43 28.385V20.3225C43 19.5808 42.398 18.9788 41.6563 18.9788ZM34.9375 26.1454C33.9485 26.1454 33.1458 25.3428 33.1458 24.3538C33.1458 23.3648 33.9485 22.5621 34.9375 22.5621C35.9265 22.5621 36.7292 23.3648 36.7292 24.3538C36.7292 25.3428 35.9265 26.1454 34.9375 26.1454Z" fill="white"/>
</svg>
