<svg width="56" height="20" viewBox="0 0 56 20" fill="none" xmlns="http://www.w3.org/2000/svg">
<path d="M11.4172 18.5854H6.60274V5.32056H0.860489V1.10791H17.1594V5.32056H11.4172V18.5854Z" fill="#878787"/>
<path d="M44.7834 9.55829H48.5447C49.2719 9.55829 49.8988 9.10694 49.8988 7.40182C49.8988 5.72177 49.3973 5.19519 48.5698 5.19519H44.7834V9.55829ZM44.7834 18.5854H39.994V1.10791H50.4003C53.8857 1.10791 55.1395 3.61544 55.1395 7.40182C55.1395 10.7118 53.5347 13.445 50.4003 13.445H44.7834V18.5854Z" fill="#878787"/>
<circle cx="27.8913" cy="9.84668" r="9.2832" fill="#878787"/>
<path d="M33.037 14.364C33.2304 14.364 33.3872 14.2072 33.3872 14.0138C33.3872 13.8204 33.2304 13.6636 33.037 13.6636C32.8436 13.6636 32.6869 13.8204 32.6869 14.0138C32.6869 14.2072 32.8436 14.364 33.037 14.364Z" fill="black"/>
<path d="M27.4345 15.7646C27.6279 15.7646 27.7846 15.6078 27.7846 15.4144C27.7846 15.221 27.6279 15.0643 27.4345 15.0643C27.2411 15.0643 27.0843 15.221 27.0843 15.4144C27.0843 15.6078 27.2411 15.7646 27.4345 15.7646Z" fill="black"/>
<path d="M23.2326 12.2629C23.426 12.2629 23.5828 12.1062 23.5828 11.9128C23.5828 11.7194 23.426 11.5626 23.2326 11.5626C23.0392 11.5626 22.8824 11.7194 22.8824 11.9128C22.8824 12.1062 23.0392 12.2629 23.2326 12.2629Z" fill="black"/>
<path d="M31.6364 5.25977C31.8298 5.25977 31.9866 5.103 31.9866 4.90961C31.9866 4.71622 31.8298 4.55945 31.6364 4.55945C31.443 4.55945 31.2863 4.71622 31.2863 4.90961C31.2863 5.103 31.443 5.25977 31.6364 5.25977Z" fill="black"/>
<path d="M33.3847 7.17025L30.5318 6.67569C30.4066 6.65397 30.2998 6.57019 30.2464 6.45188L29.0239 3.69085C28.6129 2.77984 27.3858 2.78969 26.9527 3.64314L25.6152 6.34559C25.5565 6.46197 25.4464 6.54069 25.3204 6.55661L22.449 6.92004C21.5012 7.03973 21.0939 8.23135 21.7654 8.93746L23.7918 11.0674C23.8805 11.1608 23.9189 11.2927 23.8948 11.4215L23.3428 14.3504C23.2582 14.7992 23.4244 15.2496 23.7771 15.5265C24.1295 15.8031 24.5954 15.8485 24.9913 15.6452L27.5811 14.3151C27.6954 14.2566 27.8289 14.2605 27.9398 14.3237L30.4701 15.7705C30.6461 15.871 30.8386 15.921 31.0308 15.921C31.2605 15.921 31.4899 15.8492 31.6884 15.7073C32.0517 15.4474 32.2375 15.0048 32.1728 14.5529L31.7471 11.6007C31.7283 11.4715 31.7727 11.3412 31.8652 11.252L33.9815 9.21714C34.6864 8.53809 34.3179 7.3318 33.3847 7.17025Z" fill="black"/>
<path d="M24.6332 4.5095H24.2831V4.15933C24.2831 3.69775 23.5828 3.69586 23.5828 4.15933V4.5095H23.2326C22.771 4.5095 22.7691 5.20982 23.2326 5.20982H23.5828V5.55998C23.5828 6.02156 24.2831 6.02345 24.2831 5.55998V5.20982H24.6332C25.0948 5.20982 25.0967 4.5095 24.6332 4.5095Z" fill="black"/>
</svg>
