<svg width="19" height="18" viewBox="0 0 19 18" fill="none" xmlns="http://www.w3.org/2000/svg">
<path d="M16.8032 5.80454L12.8273 5.11529C12.6527 5.08503 12.5039 4.96827 12.4295 4.80338L10.7258 0.955492C10.153 -0.314136 8.44288 -0.300408 7.83931 0.888991L5.97528 4.65525C5.89349 4.81744 5.73998 4.92716 5.56443 4.94934L1.56275 5.45584C0.24185 5.62264 -0.325797 7.28333 0.610014 8.2674L3.43412 11.2357C3.55779 11.366 3.61124 11.5498 3.57772 11.7293L2.80841 15.8112C2.69049 16.4366 2.92214 17.0642 3.41369 17.4502C3.90474 17.8356 4.55403 17.8989 5.10586 17.6156L8.71502 15.762C8.87433 15.6804 9.06036 15.6858 9.21498 15.7739L12.7413 17.7902C12.9866 17.9303 13.2549 18 13.5227 18C13.8429 18 14.1626 17.9 14.4393 17.7022C14.9455 17.34 15.2044 16.7232 15.1142 16.0934C15.1142 16.0934 15.1142 16.0934 15.1142 16.0928L14.521 11.979C14.4948 11.799 14.5566 11.6174 14.6856 11.493L17.6349 8.65718C18.6174 7.71082 18.1038 6.02969 16.8032 5.80454ZM14.5079 8.58957C12.1334 10.8739 12.1186 10.6065 12.6281 14.1365C12.6932 14.5909 12.224 14.9226 11.8373 14.7025L10.2568 13.7986C10.2563 13.7986 10.2563 13.7981 10.2563 13.7981C8.78181 12.9539 7.64459 13.8006 6.14192 14.5722C5.75125 14.776 5.29011 14.4238 5.37629 13.9711C5.99617 10.6807 6.15923 10.8904 3.73599 8.34309C3.42489 8.01631 3.61278 7.4615 4.05357 7.40626C7.4953 6.96962 7.23957 7.01785 8.73545 4.05845C8.94395 3.64852 9.51235 3.67126 9.69763 4.08007C11.0695 7.11421 10.8193 7.04697 14.2312 7.63872C14.6683 7.71503 14.8333 8.2763 14.5079 8.58957Z" fill="#878787"/>
</svg>
