<svg width="52" height="52" viewBox="0 0 52 52" fill="none" xmlns="http://www.w3.org/2000/svg">
<circle cx="26" cy="26" r="25.5" stroke="#878787"/>
<path d="M27.7209 20.9419V36.5464H24.2308V20.9419H27.7209ZM24 16.846C24 16.3172 24.1731 15.8797 24.5192 15.5336C24.8749 15.1779 25.3653 15 25.9902 15C26.6056 15 27.0911 15.1779 27.4469 15.5336C27.8026 15.8797 27.9805 16.3172 27.9805 16.846C27.9805 17.3652 27.8026 17.7979 27.4469 18.144C27.0911 18.4901 26.6056 18.6632 25.9902 18.6632C25.3653 18.6632 24.8749 18.4901 24.5192 18.144C24.1731 17.7979 24 17.3652 24 16.846Z" fill="white"/>
</svg>
