<svg width="52" height="52" viewBox="0 0 52 52" fill="none" xmlns="http://www.w3.org/2000/svg">
<circle cx="26" cy="26" r="25.5" stroke="#878787"/>
<path d="M31.6 36.8666H17.2C16.5372 36.8666 16 36.3293 16 35.6666V34.4666C16 32.2229 16.8737 30.1134 18.4603 28.527C20.0467 26.9404 22.1562 26.0667 24.4 26.0667C26.6438 26.0667 28.7532 26.9404 30.3397 28.5271C31.9262 30.1134 32.8 32.2228 32.8 34.4667V35.6666C32.8 36.3293 32.2627 36.8666 31.6 36.8666ZM18.4 34.4665H30.3999C30.3999 32.8639 29.7759 31.3572 28.6426 30.224C27.5094 29.0907 26.0027 28.4666 24.4 28.4666C22.7973 28.4666 21.2905 29.0907 20.1574 30.2239C19.0241 31.3572 18.4 32.8639 18.4 34.4666L18.4 34.4665ZM35.2 29.6666C34.5372 29.6666 34 29.1293 34 28.4666V26.0667H31.6C30.9372 26.0667 30.4 25.5294 30.4 24.8666C30.4 24.2039 30.9373 23.6666 31.6 23.6666H34V21.2666C34 20.6038 34.5373 20.0666 35.2 20.0666C35.8627 20.0666 36.4 20.6038 36.4 21.2666V23.6666H38.7999C39.4627 23.6666 40 24.2038 40 24.8666C40 25.5293 39.4627 26.0666 38.7999 26.0666H36.4V28.4666C36.4 29.1293 35.8627 29.6666 35.2 29.6666ZM24.4 24.8666C22.7973 24.8666 21.2905 24.2425 20.1573 23.1092C19.0241 21.9759 18.3999 20.4692 18.3999 18.8665C18.3999 17.2639 19.024 15.7572 20.1573 14.6239C21.2906 13.4907 22.7973 12.8666 24.4 12.8666C26.0027 12.8666 27.5094 13.4907 28.6426 14.6239C29.7759 15.7571 30.4 17.2639 30.4 18.8666C30.4 20.4693 29.7759 21.976 28.6425 23.1093C27.5095 24.2424 26.0027 24.8666 24.4 24.8666ZM24.4 15.2666C23.4383 15.2666 22.5343 15.6411 21.8544 16.321C21.1744 17.001 20.8 17.905 20.8 18.8666C20.8 19.8282 21.1744 20.7322 21.8544 21.4122C22.5343 22.0921 23.4383 22.4666 24.4 22.4666C25.3616 22.4666 26.2656 22.0922 26.9455 21.4122C27.6255 20.7322 28 19.8282 28 18.8666C28 17.905 27.6255 17.0009 26.9456 16.321C26.2656 15.641 25.3616 15.2666 24.4 15.2666Z" fill="white"/>
</svg>
