<svg width="35" height="35" viewBox="0 0 35 35" fill="none" xmlns="http://www.w3.org/2000/svg">
<circle cx="17.5" cy="17.5" r="17.5" fill="#262626"/>
<path d="M8.27151 14.4607L9.61631 16.8577L10.982 14.4607H12.9818L10.766 18.1537L13.0724 22H11.0726L9.63025 19.4846L8.18092 22H6.18114L8.48054 18.1537L6.27869 14.4607H8.27151ZM18.6885 11.8269V22H16.842V13.9799L14.3963 14.7882V13.2971L18.4795 11.8269H18.6885ZM28.8199 16.0564V17.7635C28.8199 18.5439 28.7409 19.2105 28.583 19.7633C28.425 20.3161 28.1974 20.769 27.9001 21.122C27.6028 21.4704 27.2474 21.7283 26.834 21.8955C26.4206 22.0581 25.9607 22.1394 25.4544 22.1394C25.0502 22.1394 24.674 22.0883 24.3256 21.9861C23.9772 21.8792 23.6636 21.7166 23.3849 21.4983C23.1108 21.2753 22.8739 20.992 22.6742 20.6482C22.4791 20.3045 22.3281 19.8934 22.2213 19.4149C22.1191 18.9364 22.068 18.386 22.068 17.7635V16.0564C22.068 15.276 22.1469 14.6117 22.3049 14.0636C22.4675 13.5154 22.6974 13.0671 22.9947 12.7187C23.292 12.3704 23.6474 12.1172 24.0608 11.9592C24.4742 11.7967 24.9341 11.7154 25.4404 11.7154C25.8492 11.7154 26.2255 11.7665 26.5692 11.8687C26.9176 11.9709 27.2289 12.1311 27.5029 12.3495C27.7816 12.5631 28.0186 12.8418 28.2137 13.1856C28.4088 13.5247 28.5574 13.9335 28.6596 14.412C28.7664 14.8858 28.8199 15.4339 28.8199 16.0564ZM26.9803 18.0144V15.7986C26.9803 15.4084 26.9571 15.0693 26.9107 14.7812C26.8688 14.4886 26.8061 14.2401 26.7225 14.0357C26.6389 13.8313 26.5344 13.6664 26.409 13.541C26.2835 13.4109 26.1395 13.3157 25.977 13.2553C25.8144 13.1949 25.6355 13.1647 25.4404 13.1647C25.1989 13.1647 24.9829 13.2135 24.7924 13.311C24.602 13.4039 24.4417 13.5526 24.3116 13.757C24.1816 13.9614 24.0817 14.2331 24.012 14.5722C23.947 14.9067 23.9145 15.3155 23.9145 15.7986V18.0144C23.9145 18.4046 23.9354 18.746 23.9772 19.0386C24.0236 19.3313 24.0887 19.5821 24.1723 19.7912C24.2605 20.0002 24.365 20.1721 24.4858 20.3068C24.6112 20.4369 24.7552 20.5344 24.9178 20.5995C25.0804 20.6598 25.2593 20.69 25.4544 20.69C25.7006 20.69 25.9166 20.6413 26.1024 20.5437C26.2928 20.4462 26.4531 20.2929 26.5832 20.0838C26.7132 19.8701 26.8108 19.5937 26.8758 19.2546C26.9455 18.9109 26.9803 18.4975 26.9803 18.0144Z" fill="#8E8E8E"/>
</svg>
