<svg width="22" height="21" viewBox="0 0 22 21" fill="none" xmlns="http://www.w3.org/2000/svg">
<path fill-rule="evenodd" clip-rule="evenodd" d="M10.413 17.7876L5.46211 20.8145C4.94731 21.1291 4.27431 20.9678 3.95895 20.4541C3.80492 20.2031 3.759 19.9007 3.8316 19.6155L4.598 16.6051C4.87465 15.5183 5.61982 14.6099 6.63266 14.1246L12.0339 11.5366C12.2857 11.416 12.3918 11.1145 12.2709 10.8632C12.173 10.6596 11.9516 10.5457 11.7287 10.5843L5.71645 11.623C4.4943 11.8342 3.24101 11.4974 2.29034 10.7023L0.391034 9.11386C-0.0716878 8.72687 -0.132445 8.03879 0.25533 7.57702C0.443929 7.35241 0.715138 7.21297 1.00787 7.19012L6.81084 6.73689C7.22081 6.70487 7.57809 6.44595 7.73547 6.06681L9.97416 0.673695C10.2052 0.117062 10.8447 -0.147246 11.4024 0.0833439C11.6702 0.194064 11.883 0.406418 11.994 0.673695L14.2327 6.06681C14.39 6.44595 14.7473 6.70487 15.1573 6.73689L20.9922 7.19261C21.5941 7.23961 22.0437 7.76465 21.9966 8.36533C21.974 8.65428 21.837 8.92236 21.616 9.11039L17.1661 12.8965C16.8527 13.163 16.7161 13.5825 16.8124 13.982L18.1805 19.6537C18.3218 20.2395 17.9605 20.8287 17.3736 20.9697C17.0915 21.0375 16.794 20.9905 16.5467 20.8392L11.5551 17.7876C11.2047 17.5734 10.7634 17.5734 10.413 17.7876Z" fill="white"/>
</svg>
