<svg width="22" height="22" viewBox="0 0 22 22" fill="none" xmlns="http://www.w3.org/2000/svg">
<path fill-rule="evenodd" clip-rule="evenodd" d="M16.386 10.3848C16.568 12.0075 16.0052 13.658 14.8305 14.8326C13.6566 16.0066 12.0068 16.5687 10.3851 16.3891L7.99009 20.5834C7.94674 20.66 7.89298 20.7297 7.83195 20.7908C7.68143 20.9413 7.48445 21.0405 7.26838 21.0693C6.96562 21.1098 6.66112 21.0072 6.44472 20.7908C5.54059 19.8866 5.45735 18.9912 5.39701 18.3378L5.39696 18.3373C5.34636 17.7931 5.3185 17.4935 4.91529 17.0903C4.50954 16.6846 4.20886 16.6565 3.66335 16.6055L3.66332 16.6055L3.66322 16.6055C3.00985 16.5445 2.11478 16.4608 1.21139 15.5574C0.994978 15.341 0.892323 15.0365 0.932899 14.7331C0.973822 14.43 1.15486 14.1629 1.41878 14.0114L5.61376 11.6198C5.43169 9.99708 5.99491 8.34627 7.16954 7.17164C8.34418 5.997 9.99533 5.43552 11.6184 5.61863L14.01 1.42226C14.1605 1.1566 14.4279 0.97661 14.731 0.935686C15.0341 0.894762 15.3389 0.997763 15.5554 1.21417C16.4577 2.11647 16.5426 3.00942 16.6047 3.66169L16.6048 3.66264C16.6561 4.20782 16.6849 4.5085 17.091 4.91461C17.4951 5.31864 17.7947 5.34708 18.3381 5.39806C18.9908 5.4591 19.8849 5.54372 20.7883 6.44715C21.0047 6.66356 21.1077 6.96841 21.0668 7.27152C21.038 7.48689 20.9389 7.68387 20.7883 7.83439C20.7273 7.89542 20.6572 7.94883 20.5806 7.99288L16.386 10.3848ZM15.7045 6.30115C14.9495 5.54615 14.7646 4.79878 14.6883 4.19256L13.5421 6.20439C13.5626 6.215 13.5823 6.22673 13.6021 6.23843C13.6172 6.24738 13.6322 6.25632 13.6476 6.26473C13.6833 6.2845 13.718 6.30462 13.753 6.32508C13.9326 6.42981 14.1074 6.54357 14.2742 6.66946C14.2883 6.68015 14.3018 6.69109 14.3154 6.70206C14.3243 6.70924 14.3332 6.71643 14.3422 6.72356C14.517 6.85951 14.6859 7.00413 14.8437 7.16193C15.0001 7.31834 15.1437 7.48619 15.2789 7.6596C15.2862 7.66875 15.2935 7.6778 15.3008 7.68685C15.3118 7.70041 15.3228 7.71398 15.3334 7.72792C15.46 7.89542 15.5748 8.07126 15.6809 8.25229C15.6872 8.26335 15.6937 8.2744 15.7001 8.28547C15.7116 8.30531 15.7232 8.3252 15.7343 8.34523C15.7426 8.35993 15.7513 8.37443 15.7599 8.38891C15.7739 8.41237 15.7879 8.4358 15.8005 8.46003L17.81 7.31418C17.2048 7.23822 16.4577 7.05441 15.7045 6.30115ZM8.20055 13.0477C8.21665 13.0728 8.2327 13.0978 8.25089 13.1215C8.34175 13.2401 8.44025 13.3531 8.54672 13.4596C8.98196 13.8949 9.52541 14.2039 10.1184 14.3537C11.3049 14.6613 12.5766 14.3128 13.4436 13.4457C14.3238 12.5655 14.663 11.324 14.3499 10.1251C14.3477 10.116 14.3458 10.1069 14.3439 10.0979C14.3428 10.0925 14.3417 10.0871 14.3405 10.0817C14.3232 10.017 14.301 9.95414 14.2787 9.89107C14.2733 9.87568 14.2678 9.86027 14.2625 9.84483C14.2556 9.82521 14.2491 9.80548 14.2426 9.78578C14.2283 9.74247 14.214 9.69927 14.1966 9.65755C14.1666 9.58614 14.1314 9.5175 14.096 9.44863C14.09 9.4369 14.084 9.42516 14.078 9.4134C14.0686 9.39504 14.0598 9.3765 14.0509 9.35797C14.0347 9.32401 14.0184 9.29009 13.9996 9.25734C13.9537 9.17832 13.9013 9.10352 13.849 9.02888C13.8432 9.02065 13.8375 9.01241 13.8317 9.00417C13.8204 8.988 13.8098 8.97142 13.7991 8.95487C13.784 8.93129 13.7689 8.90777 13.752 8.88556C13.6611 8.76695 13.5629 8.65424 13.4572 8.54846C13.0219 8.11322 12.4785 7.80421 11.8851 7.65474C10.6785 7.33949 9.43732 7.67832 8.55677 8.55887C7.67623 9.43941 7.3374 10.6806 7.65091 11.8806C7.65332 11.8896 7.65504 11.8984 7.65676 11.9073C7.65777 11.9125 7.65878 11.9177 7.65993 11.9229C7.67893 11.9936 7.70327 12.0619 7.72773 12.1306C7.73184 12.1422 7.73595 12.1537 7.74004 12.1653C7.74748 12.1862 7.75451 12.2073 7.76155 12.2285C7.77486 12.2685 7.78822 12.3087 7.80455 12.3477C7.83342 12.4174 7.86818 12.4847 7.90284 12.5518C7.9094 12.5644 7.91595 12.5771 7.92246 12.5898C7.9315 12.6078 7.94013 12.6259 7.94876 12.644C7.96564 12.6794 7.98249 12.7147 8.00223 12.7487C8.04996 12.8306 8.10457 12.9082 8.15923 12.9859L8.168 12.9984C8.1793 13.0146 8.18994 13.0312 8.20055 13.0477ZM6.30252 15.7031C7.05614 16.4567 7.23925 17.2037 7.31451 17.8103L8.46002 15.804C8.44072 15.7938 8.42193 15.7827 8.4031 15.7715C8.38742 15.7622 8.3717 15.7529 8.35563 15.744C8.3199 15.7243 8.28488 15.7038 8.24985 15.6833C8.0702 15.5779 7.89576 15.4645 7.72894 15.3386C7.71502 15.3281 7.70136 15.317 7.68763 15.3059C7.6788 15.2987 7.66994 15.2916 7.66097 15.2845C7.48618 15.1486 7.31728 15.0039 7.15949 14.8461C7.00273 14.6894 6.8588 14.5212 6.7232 14.3474C6.71592 14.3382 6.70846 14.329 6.701 14.3198C6.68998 14.3062 6.67895 14.2926 6.66841 14.2788C6.54217 14.1116 6.42738 13.9365 6.3216 13.7558C6.31647 13.7469 6.31134 13.7381 6.30622 13.7293C6.29231 13.7054 6.27851 13.6817 6.26507 13.6576C6.25612 13.6416 6.24673 13.6258 6.23733 13.61C6.22451 13.5884 6.21167 13.5668 6.19987 13.5446L4.19289 14.6887C4.79981 14.7643 5.54787 14.9485 6.30252 15.7031ZM11.3772 10.6255C11.1719 10.4202 10.8362 10.4223 10.6284 10.63C10.2452 11.0133 9.62409 11.0129 9.24121 10.63C8.85833 10.2472 8.85833 9.62568 9.24121 9.24281C10.2137 8.27036 11.7944 8.26828 12.7644 9.2383C13.1473 9.62118 13.1473 10.2427 12.7644 10.6255C12.3816 11.0084 11.7601 11.0084 11.3772 10.6255Z" fill="white"/>
</svg>
