<svg width="20" height="22" viewBox="0 0 20 22" fill="none" xmlns="http://www.w3.org/2000/svg">
<path fill-rule="evenodd" clip-rule="evenodd" d="M15.6023 10.0854C15.8746 11.6632 15.4194 13.3114 14.3377 14.5293C13.2567 15.7464 11.6744 16.3924 10.0767 16.3106L7.97552 20.555C7.93753 20.6325 7.88895 20.7039 7.83275 20.7672C7.69415 20.9232 7.50708 21.0317 7.29726 21.0725C7.00326 21.1297 6.69925 21.0469 6.47487 20.8476C5.53745 20.0151 5.40405 19.1434 5.30709 18.5073L5.30701 18.5068C5.22593 17.9771 5.18128 17.6855 4.76323 17.3142C4.34253 16.9405 4.04658 16.9305 3.50966 16.9122L3.50963 16.9122L3.50954 16.9122C2.86645 16.8903 1.98547 16.8604 1.04881 16.0285C0.824435 15.8292 0.706295 15.5371 0.728415 15.2378C0.750895 14.9387 0.912612 14.6668 1.16216 14.5031L5.12969 11.9189C4.85736 10.3411 5.31293 8.69255 6.3946 7.47466C7.47626 6.25676 9.05991 5.61141 10.6592 5.69653L12.7569 1.45027C12.8888 1.18151 13.1401 0.989822 13.4344 0.932188C13.7287 0.874553 14.0331 0.957697 14.2575 1.15698C15.193 1.98786 15.328 2.85699 15.4266 3.49185L15.4267 3.49277C15.5086 4.02344 15.5542 4.31609 15.9752 4.69005C16.3941 5.06211 16.6891 5.07257 17.224 5.09095C17.8664 5.11285 18.7465 5.14384 19.6832 5.97576C19.9076 6.17504 20.0261 6.46746 20.0036 6.76653C19.9879 6.97901 19.9022 7.17758 19.7636 7.33364C19.7074 7.39692 19.6419 7.45326 19.5695 7.50082L15.6023 10.0854ZM14.6984 6.12765C13.9156 5.43241 13.6914 4.71158 13.5815 4.12261L12.5762 6.15834C12.5969 6.16754 12.6169 6.17787 12.6369 6.18817C12.6522 6.19606 12.6674 6.20394 12.6829 6.21129C12.7191 6.22857 12.7542 6.24625 12.7896 6.26424C12.9716 6.35635 13.1492 6.45756 13.3198 6.57111C13.3342 6.58076 13.3481 6.59069 13.362 6.60064C13.3711 6.60715 13.3802 6.61367 13.3895 6.62012C13.5685 6.74306 13.7422 6.87482 13.9058 7.02013C14.068 7.16416 14.2182 7.32014 14.3607 7.48203C14.3683 7.49057 14.376 7.499 14.3837 7.50743C14.3952 7.52007 14.4068 7.53272 14.4179 7.54575C14.5516 7.70237 14.6741 7.86782 14.7885 8.03887C14.7953 8.04933 14.8023 8.05979 14.8092 8.07026C14.8217 8.089 14.8341 8.1078 14.8462 8.12675C14.8552 8.14066 14.8645 8.15435 14.8738 8.16803C14.8888 8.19017 14.9039 8.2123 14.9177 8.23528L16.8181 6.99715C16.2213 6.9579 15.4794 6.8213 14.6984 6.12765ZM7.74453 13.1666C7.76176 13.1903 7.77891 13.2138 7.79809 13.2359C7.89391 13.3467 7.99687 13.4517 8.10726 13.5497C8.55853 13.9505 9.1084 14.2214 9.69758 14.3337C10.8767 14.566 12.1014 14.1511 12.8998 13.2522C13.7103 12.3395 13.9703 11.1046 13.5942 9.94919C13.5916 9.94042 13.5892 9.93164 13.5868 9.92294C13.5854 9.91769 13.584 9.91247 13.5825 9.9073C13.5619 9.845 13.5365 9.78474 13.511 9.72429C13.5048 9.70954 13.4986 9.69478 13.4924 9.67997C13.4846 9.66116 13.4771 9.64223 13.4696 9.62332C13.453 9.58175 13.4365 9.5403 13.4171 9.50048C13.3836 9.43231 13.3451 9.36717 13.3065 9.3018C13.3 9.29067 13.2934 9.27953 13.2868 9.26837C13.2766 9.25093 13.2669 9.2333 13.2571 9.21568C13.2392 9.18338 13.2214 9.15112 13.201 9.12015C13.1515 9.04547 13.0959 8.9753 13.0404 8.90528C13.0343 8.89755 13.0282 8.88981 13.0221 8.88207C13.0101 8.8669 12.9987 8.85129 12.9873 8.83571C12.9711 8.81351 12.9549 8.79136 12.9371 8.7706C12.8413 8.65977 12.7387 8.55514 12.629 8.45773C12.1777 8.05694 11.6279 7.78599 11.0384 7.67409C9.83907 7.43547 8.64376 7.83911 7.83292 8.75209C7.02207 9.66506 6.76238 10.8997 7.13885 12.056C7.14173 12.0647 7.14392 12.0732 7.14612 12.0818C7.14741 12.0868 7.1487 12.0919 7.15013 12.0969C7.17283 12.165 7.20062 12.2305 7.22854 12.2964C7.23323 12.3074 7.23793 12.3185 7.2426 12.3296C7.2511 12.3496 7.2592 12.3699 7.26733 12.3902C7.28267 12.4286 7.29808 12.4672 7.31632 12.5044C7.34863 12.571 7.38655 12.6348 7.42437 12.6984C7.43152 12.7104 7.43867 12.7225 7.44578 12.7345C7.45566 12.7516 7.46517 12.7688 7.47466 12.786C7.49324 12.8197 7.51178 12.8533 7.53307 12.8854C7.58455 12.9628 7.6425 13.0356 7.70051 13.1085C7.70361 13.1124 7.70671 13.1163 7.70981 13.1202C7.72181 13.1354 7.73319 13.151 7.74453 13.1666ZM6.04066 15.8759C6.82203 16.5698 7.04459 17.2904 7.15342 17.8798L8.15835 15.8495C8.13886 15.8407 8.11983 15.8308 8.10075 15.821C8.08486 15.8128 8.06893 15.8046 8.05269 15.7969C8.01658 15.7796 7.9811 15.7616 7.94563 15.7436C7.76367 15.6508 7.58634 15.5499 7.41576 15.4364C7.40152 15.4268 7.3875 15.4168 7.37343 15.4067C7.36436 15.4003 7.35527 15.3937 7.34608 15.3873C7.16711 15.2644 6.9934 15.1326 6.82979 14.9873C6.66726 14.843 6.51663 14.6867 6.37382 14.5245C6.36615 14.5159 6.35832 14.5073 6.35048 14.4987C6.33892 14.4861 6.32732 14.4734 6.3162 14.4604C6.18294 14.3041 6.06042 14.1394 5.94641 13.9686C5.94087 13.9603 5.93533 13.9519 5.92981 13.9436C5.91482 13.9211 5.89993 13.8986 5.88538 13.8758C5.87569 13.8607 5.86558 13.8458 5.85546 13.8308C5.84167 13.8104 5.82784 13.79 5.815 13.769L3.91685 15.0053C4.5153 15.0441 5.25821 15.1809 6.04066 15.8759ZM10.7134 10.6115C10.5005 10.4224 10.1721 10.4439 9.98077 10.6593C9.62788 11.0566 9.01987 11.0923 8.62289 10.7397C8.22592 10.3872 8.18988 9.77884 8.54245 9.38186C9.43793 8.3736 10.9851 8.2799 11.9908 9.17314C12.3878 9.52571 12.4239 10.134 12.0713 10.531C11.7187 10.928 11.1104 10.964 10.7134 10.6115Z" fill="#666666"/>
</svg>
