<svg width="22" height="18" viewBox="0 0 22 18" fill="none" xmlns="http://www.w3.org/2000/svg">
<path d="M8.60562 17.8867H8.64525C9.08942 17.886 9.5288 17.7948 9.93663 17.6188C10.3445 17.4429 10.7122 17.1857 11.0175 16.8631L20.8825 6.39945C21.4749 5.76989 21.7934 4.93106 21.7681 4.06698C21.7428 3.2029 21.3758 2.38413 20.7476 1.7903C20.1179 1.19807 19.2791 0.879725 18.415 0.905094C17.551 0.930463 16.7323 1.29747 16.1384 1.92563L8.70301 9.80921L5.87251 6.65493C5.2899 6.03195 4.48637 5.66208 3.63423 5.62464C2.7821 5.5872 1.94922 5.88517 1.31422 6.45465C0.679217 7.02412 0.292655 7.81976 0.237436 8.67093C0.182217 9.5221 0.462738 10.361 1.01884 11.0078L6.21821 16.8037C6.51996 17.1391 6.88783 17.4084 7.29868 17.5948C7.70954 17.7812 8.15451 17.8806 8.60562 17.8867ZM2.3367 7.59632C2.63961 7.32269 3.03347 7.17151 3.44167 7.17221C3.47244 7.17221 3.5028 7.17221 3.53357 7.17474C3.75111 7.18594 3.96426 7.24014 4.16073 7.33421C4.35719 7.42828 4.53306 7.56035 4.67817 7.7228L8.09298 11.5284C8.16699 11.6111 8.25738 11.6776 8.35842 11.7235C8.45947 11.7695 8.56896 11.7939 8.67995 11.7953C8.79094 11.7967 8.90101 11.775 9.00317 11.7316C9.10533 11.6882 9.19736 11.624 9.27341 11.5432L17.3062 3.02511C17.6081 2.70517 18.0247 2.51825 18.4644 2.50548C18.9041 2.49271 19.3309 2.65514 19.6509 2.95703C19.9708 3.25891 20.1577 3.67554 20.1705 4.11524C20.1833 4.55494 20.0208 4.98171 19.7189 5.30165L9.8514 15.764C9.69614 15.928 9.50915 16.0587 9.3018 16.1481C9.09445 16.2376 8.87107 16.2839 8.64525 16.2843H8.62459C8.39527 16.2811 8.16908 16.2305 7.96021 16.1358C7.75135 16.041 7.56432 15.9041 7.41086 15.7337L2.21023 9.93779C1.91682 9.61037 1.76534 9.1799 1.78906 8.74089C1.81277 8.30188 2.00973 7.89023 2.3367 7.59632Z" fill="white"/>
</svg>
