<svg width="24" height="23" viewBox="0 0 24 23" fill="none" xmlns="http://www.w3.org/2000/svg">
<path d="M15.6394 22.9531H1.89558C1.26302 22.9531 0.750244 22.4403 0.750244 21.8078V20.6625C0.750244 18.521 1.5842 16.5077 3.09845 14.9935C4.61257 13.4792 6.62593 12.6453 8.7675 12.6453C10.9091 12.6453 12.9224 13.4792 14.4365 14.9936C15.9508 16.5076 16.7847 18.5209 16.7847 20.6626V21.8079C16.7848 22.4403 16.272 22.9531 15.6394 22.9531ZM3.04092 20.6624H14.4941C14.4941 19.1328 13.8984 17.6948 12.8168 16.6132C11.7352 15.5315 10.2972 14.9359 8.7675 14.9359C7.2378 14.9359 5.79974 15.5315 4.71822 16.6131C3.63657 17.6948 3.04088 19.1328 3.04088 20.6625L3.04092 20.6624ZM19.0754 16.0812C18.4428 16.0812 17.93 15.5684 17.93 14.9359V12.6453H15.6394C15.0069 12.6453 14.4941 12.1325 14.4941 11.5C14.4941 10.8674 15.0069 10.3546 15.6394 10.3546H17.93V8.06394C17.93 7.43138 18.4429 6.9186 19.0754 6.9186C19.7079 6.9186 20.2207 7.43138 20.2207 8.06394V10.3546H22.5113C23.1439 10.3546 23.6567 10.8674 23.6567 11.4999C23.6567 12.1324 23.1438 12.6453 22.5113 12.6453H20.2207V14.9359C20.2207 15.5684 19.7079 16.0812 19.0754 16.0812ZM8.7675 11.4999C7.2378 11.4999 5.79974 10.9042 4.71813 9.82258C3.63657 8.74098 3.04084 7.30291 3.04084 5.77326C3.04084 4.24366 3.63652 2.80559 4.71813 1.72394C5.79978 0.642378 7.23784 0.0466919 8.7675 0.0466919C10.2972 0.0466919 11.7353 0.642378 12.8168 1.72398C13.8984 2.80555 14.4942 4.24361 14.4942 5.77331C14.4942 7.303 13.8984 8.74106 12.8167 9.82267C11.7353 10.9042 10.2972 11.4999 8.7675 11.4999ZM8.7675 2.33737C7.84967 2.33737 6.98686 2.69478 6.33789 3.3437C5.68893 3.99271 5.33152 4.85552 5.33152 5.77331C5.33152 6.69109 5.68893 7.55394 6.33789 8.20291C6.98681 8.85187 7.84967 9.20928 8.7675 9.20928C9.68532 9.20928 10.5481 8.85191 11.197 8.20295C11.8461 7.55394 12.2035 6.69113 12.2035 5.77331C12.2035 4.85552 11.8461 3.99267 11.1971 3.34375C10.5481 2.69474 9.68532 2.33737 8.7675 2.33737Z" fill="white"/>
</svg>
