<svg width="15" height="12" viewBox="0 0 15 12" fill="none" xmlns="http://www.w3.org/2000/svg">
<path d="M5.64801 11.4531H5.67473C5.97428 11.4526 6.27058 11.3911 6.54562 11.2725C6.82065 11.1538 7.06866 10.9804 7.27454 10.7628L13.9274 3.70627C14.3269 3.2817 14.5416 2.71601 14.5246 2.13328C14.5075 1.55056 14.26 0.998393 13.8364 0.597919C13.4117 0.198525 12.846 -0.016159 12.2633 0.000949457C11.6806 0.0180579 11.1285 0.265562 10.728 0.689182L5.71368 6.00576L3.80483 3.87856C3.41193 3.45843 2.87004 3.209 2.29537 3.18375C1.7207 3.1585 1.15902 3.35944 0.730784 3.74349C0.302547 4.12754 0.0418553 4.66411 0.00461633 5.23812C-0.0326226 5.81214 0.156557 6.37789 0.531583 6.81405L4.03796 10.7227C4.24147 10.9489 4.48955 11.1306 4.76662 11.2562C5.0437 11.3819 5.34378 11.449 5.64801 11.4531ZM1.42033 4.51342C1.62461 4.32889 1.89022 4.22694 2.16551 4.22741C2.18626 4.22741 2.20673 4.22741 2.22749 4.22911C2.37419 4.23666 2.51794 4.27321 2.65043 4.33665C2.78292 4.40009 2.90152 4.48916 2.99938 4.59871L5.30229 7.16517C5.3522 7.22096 5.41316 7.26577 5.4813 7.29675C5.54944 7.32773 5.62328 7.34422 5.69813 7.34515C5.77298 7.34609 5.84721 7.33146 5.91611 7.30219C5.985 7.27292 6.04706 7.22965 6.09835 7.17512L11.5156 1.43066C11.7192 1.21489 12.0001 1.08884 12.2967 1.08023C12.5932 1.07162 12.881 1.18115 13.0968 1.38474C13.3125 1.58833 13.4386 1.8693 13.4472 2.16583C13.4558 2.46236 13.3463 2.75016 13.1427 2.96593L6.48814 10.0216C6.38344 10.1322 6.25733 10.2203 6.1175 10.2807C5.97766 10.341 5.82702 10.3722 5.67473 10.3725H5.6608C5.50614 10.3703 5.3536 10.3362 5.21275 10.2723C5.07189 10.2084 4.94576 10.1161 4.84227 10.0012L1.33504 6.09247C1.13717 5.87167 1.03502 5.58136 1.05101 5.2853C1.067 4.98924 1.19983 4.71163 1.42033 4.51342Z" fill="#7DC152"/>
</svg>
