<svg width="21" height="21" viewBox="0 0 21 21" fill="none" xmlns="http://www.w3.org/2000/svg">
<path d="M20.3347 12.262V8.77886L17.7122 8.12322C17.5892 7.79539 17.4663 7.46757 17.3024 7.18073L18.6956 4.76304L16.237 2.30437L13.9012 3.69762C13.5734 3.5337 13.2866 3.41077 12.9587 3.28784L12.2621 0.66526H8.77901L8.12336 3.28784C7.79554 3.41077 7.46772 3.5337 7.18087 3.69762L4.76318 2.30437L2.30452 4.76304L3.69776 7.09877C3.53385 7.42659 3.41092 7.71344 3.28798 8.04126L0.665405 8.73788V12.221L3.28798 12.8766C3.41092 13.2045 3.53385 13.5323 3.69776 13.8191L2.30452 16.2368L4.76318 18.6955L7.09892 17.3022C7.42674 17.4661 7.71358 17.5891 8.0414 17.712L8.69705 20.3346H12.1802L12.8358 17.712C13.1636 17.5891 13.4914 17.4661 13.7783 17.3022L16.237 18.6955L18.6956 16.2368L17.3024 13.9011C17.4663 13.5733 17.5892 13.2864 17.7122 12.9586L20.3347 12.262ZM10.5001 14.8436C8.08238 14.8436 6.15643 12.9176 6.15643 10.4999C6.15643 8.08224 8.08238 6.15628 10.5001 6.15628C12.9178 6.15628 14.8437 8.08224 14.8437 10.4999C14.8437 12.9176 12.9178 14.8436 10.5001 14.8436Z" fill="white"/>
</svg>
