<svg width="47" height="43" viewBox="0 0 47 43" fill="none" xmlns="http://www.w3.org/2000/svg">
<path d="M30.9419 10.1634L27.1381 3.64707C26.9572 3.33711 26.6598 3.11136 26.3122 3.02178C25.9664 2.93578 25.5955 2.98595 25.2873 3.17049L13.6594 10.1472L30.9419 10.1634Z" fill="white"/>
<path d="M5.375 11.9389C4.38959 11.9389 3.58334 11.1327 3.58334 10.1473C3.58334 9.16183 4.38959 8.35558 5.375 8.35558H11.4129L17.3971 4.77225H5.375C2.72333 4.77225 0.519584 6.70725 0.0895834 9.25142C0.05375 9.39475 0 9.53808 0 9.69933V37.0223C0 39.9785 2.41875 42.3973 5.375 42.3973H35.8334C37.8042 42.3973 39.4167 40.7848 39.4167 38.8139V35.2306H34.9375C30.4942 35.2306 26.875 31.6114 26.875 27.1681C26.875 22.7248 30.4942 19.1056 34.9375 19.1056H39.4167V15.5223C39.4167 13.5514 37.8042 11.9389 35.8334 11.9389H5.375ZM34.0417 8.35558C34.0417 6.546 32.6979 5.041 30.9421 4.80808L34.0417 10.1473V8.35558Z" fill="white"/>
<rect x="26.1179" width="20.3268" height="20.3268" rx="10.1634" fill="#FF0000"/>
<path d="M41.6563 21.7931H34.9375C31.9741 21.7931 29.5625 24.2047 29.5625 27.1681C29.5625 30.1315 31.9741 32.5431 34.9375 32.5431H41.6563C42.398 32.5431 43 31.9411 43 31.1993V23.1368C43 22.3951 42.398 21.7931 41.6563 21.7931ZM34.9375 28.9598C33.9485 28.9598 33.1458 28.1571 33.1458 27.1681C33.1458 26.1791 33.9485 25.3764 34.9375 25.3764C35.9265 25.3764 36.7292 26.1791 36.7292 27.1681C36.7292 28.1571 35.9265 28.9598 34.9375 28.9598Z" fill="white"/>
</svg>
